<svg id="esjnbm21k1dp1" xmlns="http://www.w3.org/2000/svg" xmlns:xlink="http://www.w3.org/1999/xlink" viewBox="0 0 512.422000 512.422000" shape-rendering="geometricPrecision" text-rendering="geometricPrecision"><style><![CDATA[#esjnbm21k1dp7_to {animation: esjnbm21k1dp7_to__to 3000ms linear infinite normal forwards}@keyframes esjnbm21k1dp7_to__to { 0% {transform: translate(256.210999px,103.097412px);animation-timing-function: cubic-bezier(0.680000,-0.060000,1,1)} 16.666667% {transform: translate(256.210999px,270.005046px);animation-timing-function: cubic-bezier(0,0,0.325000,0.995000)} 33.333333% {transform: translate(256.210999px,103.097412px);animation-timing-function: cubic-bezier(0.680000,-0.060000,1,1)} 50% {transform: translate(256.210999px,270.005046px);animation-timing-function: cubic-bezier(0,0,0.325000,0.995000)} 66.666667% {transform: translate(256.210999px,103.097412px);animation-timing-function: cubic-bezier(0.680000,-0.060000,1,1)} 83.333333% {transform: translate(256.210999px,270.005046px);animation-timing-function: cubic-bezier(0,0,0.325000,0.995000)} 100% {transform: translate(256.210999px,103.097412px)} }#esjnbm21k1dp7_ts {animation: esjnbm21k1dp7_ts__ts 3000ms linear infinite normal forwards}@keyframes esjnbm21k1dp7_ts__ts { 0% {transform: scale(1,1);animation-timing-function: cubic-bezier(0.880000,-0.010000,1,1)} 16.666667% {transform: scale(0.700000,0.700000);animation-timing-function: cubic-bezier(0,0,0.325000,0.995000)} 33.333333% {transform: scale(1,1);animation-timing-function: cubic-bezier(0.880000,-0.010000,1,1)} 50% {transform: scale(0.700000,0.700000);animation-timing-function: cubic-bezier(0,0,0.325000,0.995000)} 66.666667% {transform: scale(1,1);animation-timing-function: cubic-bezier(0.880000,-0.010000,1,1)} 83.333333% {transform: scale(0.700000,0.700000);animation-timing-function: cubic-bezier(0,0,0.325000,0.995000)} 100% {transform: scale(1,1)} }]]></style><g id="esjnbm21k1dp2"><path id="esjnbm21k1dp3" d="M421.211000,300.005000L91.211000,300.005000L91.211000,260.850000L256.211000,240.005000L421.211000,260.850000Z" fill="rgb(92,131,143)" stroke="none" stroke-width="1"/><path id="esjnbm21k1dp4" d="M421.211000,300.005000L256.211000,300.005000L256.211000,240.005000L421.211000,240.850000Z" fill="rgb(53,106,124)" stroke="none" stroke-width="1"/><path id="esjnbm21k1dp5" d="M301.211000,165.005000L466.211000,195.005000L421.211000,270.005000L256.211000,240.005000Z" transform="matrix(1 0 0 1 -0.31799000000000 -1)" fill="rgb(237,185,134)" stroke="none" stroke-width="1"/><path id="esjnbm21k1dp6" d="M211.211000,165.005000L46.211000,195.005000L91.211000,270.005000L256.211000,240.005000Z" fill="rgb(240,207,163)" stroke="none" stroke-width="1"/><g id="esjnbm21k1dp7_to" transform="translate(256.210999,103.097412)"><g id="esjnbm21k1dp7_ts" transform="scale(1,1)"><g id="esjnbm21k1dp7" transform="translate(-256.210999,-101.443974)"><g id="esjnbm21k1dp8" transform="matrix(1 0 0 1 0.00000100000000 83.37060000000000)"><g id="esjnbm21k1dp9" transform="matrix(1 0 0 1 246.37400000000000 -88.20550000000000)"><g id="esjnbm21k1dp10"><g id="esjnbm21k1dp11" transform="matrix(1 0 0 1 -246.37400000000000 88.20550000000000)"><g id="esjnbm21k1dp12"><path id="esjnbm21k1dp13" d="M357.734783,34.649431C340.705249,17.621214,313.097082,17.621214,296.068865,34.649431L292.628209,34.931107L287.868679,30.170261C270.840462,13.142044,243.230978,13.142044,226.202761,30.170261C209.173227,47.198478,209.173227,74.807962,226.202761,91.836180L292.628209,153.312559L356.034199,88.852260C373.063733,71.822726,374.763001,51.677649,357.734783,34.649431Z" transform="matrix(1 0 0 1 -37.22970000000000 -68.31030000000000)" fill="rgb(97,177,204)" stroke="none" stroke-width="1"/><path id="esjnbm21k1dp14" d="M338.490638,35.394046C321.311525,18.214933,293.457379,18.214933,276.278266,35.394046L271.476560,40.197081L271.476560,159.627572L338.490638,97.606418C355.669751,80.425977,355.669751,52.573160,338.490638,35.394046Z" transform="matrix(1 0 0 1 -15.15390000000000 -72.56970000000000)" fill="rgb(13,127,165)" stroke="none" stroke-width="1"/></g></g></g></g></g></g></g></g><path id="esjnbm21k1dp15" d="M91.211000,338.429000L91.211000,482.423000L256.211000,512.422000L421.211000,482.423000L421.211000,338.429000L256.211000,300.005000Z" fill="rgb(141,180,193)" stroke="none" stroke-width="1"/><path id="esjnbm21k1dp16" d="M421.211000,351.434000L256.211000,300.005000L256.211000,512.422000L421.211000,482.423000Z" fill="rgb(80,165,193)" stroke="none" stroke-width="1"/><path id="esjnbm21k1dp17" d="M211.211000,375.005000L46.211000,345.005000L91.211000,270.005000L256.211000,300.005000Z" fill="rgb(240,207,163)" stroke="none" stroke-width="1"/><path id="esjnbm21k1dp18" d="M301.211000,375.005000L466.211000,345.005000L421.211000,270.005000L256.211000,300.005000Z" fill="rgb(237,185,134)" stroke="none" stroke-width="1"/></g></svg>