<svg id="eyrb93BANlz1" xmlns="http://www.w3.org/2000/svg" xmlns:xlink="http://www.w3.org/1999/xlink" viewBox="0 0 500 500" shape-rendering="geometricPrecision" text-rendering="geometricPrecision"><style><![CDATA[#eyrb93BANlz20_ts {animation: eyrb93BANlz20_ts__ts 3000ms linear 1 normal forwards}@keyframes eyrb93BANlz20_ts__ts { 0% {transform: translate(235.645065px,373.844986px) scale(0,0)} 5.666667% {transform: translate(235.645065px,373.844986px) scale(0,0);animation-timing-function: cubic-bezier(0.680000,-0.550000,0.265000,1.550000)} 39% {transform: translate(235.645065px,373.844986px) scale(1,1)} 100% {transform: translate(235.645065px,373.844986px) scale(1,1)}} #eyrb93BANlz21_ts {animation: eyrb93BANlz21_ts__ts 3000ms linear 1 normal forwards}@keyframes eyrb93BANlz21_ts__ts { 0% {transform: translate(375.526825px,170.615005px) scale(0,0)} 16.333333% {transform: translate(375.526825px,170.615005px) scale(0,0);animation-timing-function: cubic-bezier(0.680000,-0.550000,0.265000,1.550000)} 49.666667% {transform: translate(375.526825px,170.615005px) scale(1,1)} 100% {transform: translate(375.526825px,170.615005px) scale(1,1)}} #eyrb93BANlz23_ts {animation: eyrb93BANlz23_ts__ts 3000ms linear 1 normal forwards}@keyframes eyrb93BANlz23_ts__ts { 0% {transform: translate(171.750000px,261.964996px) scale(0,0)} 27.333333% {transform: translate(171.750000px,261.964996px) scale(0,0);animation-timing-function: cubic-bezier(0.680000,-0.550000,0.265000,1.550000)} 60.666667% {transform: translate(171.750000px,261.964996px) scale(1,1)} 100% {transform: translate(171.750000px,261.964996px) scale(1,1)}} #eyrb93BANlz24_ts {animation: eyrb93BANlz24_ts__ts 3000ms linear 1 normal forwards}@keyframes eyrb93BANlz24_ts__ts { 0% {transform: translate(181.254997px,126.060005px) scale(0,0);animation-timing-function: cubic-bezier(0.680000,-0.550000,0.265000,1.550000)} 33.333333% {transform: translate(181.254997px,126.060005px) scale(1,1)} 100% {transform: translate(181.254997px,126.060005px) scale(1,1)}} #eyrb93BANlz29_to {animation: eyrb93BANlz29_to__to 3000ms linear 1 normal forwards}@keyframes eyrb93BANlz29_to__to { 0% {transform: translate(156.231700px,345.822937px)} 46.666667% {transform: translate(156.231700px,345.822937px);animation-timing-function: cubic-bezier(0.190000,1,0.220000,1)} 100% {transform: translate(323.170824px,280.025383px)}} #eyrb93BANlz29_ts {animation: eyrb93BANlz29_ts__ts 3000ms linear 1 normal forwards}@keyframes eyrb93BANlz29_ts__ts { 0% {transform: scale(0.850000,0.850000)} 46.666667% {transform: scale(0.850000,0.850000);animation-timing-function: cubic-bezier(0.190000,1,0.220000,1)} 100% {transform: scale(1,1)}}]]></style><path id="eyrb93BANlz2" d="M452.153000,254.060000C452.213000,291.887000,440.235000,328.752000,417.953000,359.320000C399.944000,384.109000,375.876000,403.862000,348.051000,416.690000C320.226000,429.518000,289.575000,434.992000,259.030000,432.588000C228.485000,430.184000,199.067000,419.983000,173.591000,402.960000C148.116000,385.938000,127.434000,362.663000,113.524000,335.362000C99.614900,308.062000,92.943100,277.649000,94.147100,247.033000C95.351200,216.417000,104.391000,186.622000,120.401000,160.498000C136.412000,134.375000,158.858000,112.796000,185.592000,97.826500C212.325000,82.857000,242.453000,74.997600,273.093000,75C278.006000,75,282.870000,75.196700,287.683000,75.590000C315.423000,77.805900,342.256000,86.502500,366.023000,100.980000C392.325000,116.943000,414.068000,139.415000,429.155000,166.229000C444.242000,193.043000,452.163000,223.293000,452.153000,254.060000Z" fill="rgb(24,86,106)" stroke="none" stroke-width="1"/><g id="eyrb93BANlz3" opacity="0.2"><path id="eyrb93BANlz4" d="M311.763000,338.570000C309.503000,344.570000,313.263000,344.840000,313.513000,347.350000C313.763000,349.860000,313.513000,354.620000,306.243000,361.900000C298.973000,369.180000,286.933000,367.660000,284.423000,370.670000C281.913000,373.680000,277.653000,386.470000,271.633000,390.740000C265.613000,395.010000,264.633000,392.490000,256.083000,394.250000C247.533000,396.010000,241.093000,407.060000,238.533000,412.300000C235.973000,417.540000,239.033000,426.350000,233.013000,426.600000C226.993000,426.850000,224.233000,413.810000,218.723000,406.790000C213.213000,399.770000,211.443000,393.490000,209.723000,385.220000C208.003000,376.950000,210.723000,359.640000,209.723000,352.870000C208.723000,346.100000,190.633000,334.060000,184.093000,325.780000C177.553000,317.500000,168.563000,300.960000,169.093000,295.440000C169.853000,290.086000,172.524000,285.188000,176.613000,281.650000C179.613000,279.390000,178.373000,278.140000,178.873000,276.130000C179.373000,274.120000,181.873000,273.620000,182.383000,271.130000C182.893000,268.640000,180.883000,261.130000,178.383000,259.850000C175.883000,258.570000,174.123000,262.850000,172.613000,262.100000C171.103000,261.350000,166.613000,256.100000,164.843000,255.580000C163.073000,255.060000,163.583000,258.840000,161.083000,254.080000C158.583000,249.320000,157.313000,237.280000,155.313000,235.270000C153.313000,233.260000,151.803000,238.780000,147.033000,235.270000C142.263000,231.760000,140.263000,224.990000,138.253000,223.990000C136.243000,222.990000,133.493000,224.240000,131.433000,220.220000C129.373000,216.200000,133.243000,208.940000,131.433000,209.690000C129.623000,210.440000,125.723000,216.210000,124.713000,210.690000C123.703000,205.170000,129.713000,186.620000,128.713000,176.590000C127.713000,166.560000,131.213000,156.020000,138.233000,147.500000C138.233000,147.500000,139.233000,141.980000,140.233000,138.500000C141.233000,135.020000,162.803000,120.950000,165.313000,116.930000C166.313000,115.260000,166.703000,112.630000,167.083000,109.800000C197.785000,87.155200,234.943000,74.957400,273.093000,75.000100C278.006000,75.000100,282.869000,75.196800,287.683000,75.590100L288.183000,76.260100C290.353000,79.010100,292.703000,80.770100,299.053000,83.110100C305.403000,85.450100,306.913000,88.460100,305.573000,90.970100C304.233000,93.480100,302.063000,93.970100,299.573000,94.150100C297.083000,94.330100,294.723000,92.970100,292.053000,94.650100C289.383000,96.330100,286.703000,105.350000,283.193000,105.850000C279.683000,106.350000,273.493000,97.850100,272.193000,95.320100C270.893000,92.790100,275.193000,87.460100,273.193000,84.950100C271.193000,82.440100,267.553000,82.950100,261.863000,82.440100C256.173000,81.930100,242.983000,84.120100,243.483000,86.290100C243.983000,88.460100,262.873000,85.950100,263.373000,90.290100C263.873000,94.630100,249.503000,101.990000,246.993000,101.290000C244.483000,100.590000,241.143000,96.290100,237.463000,95.780100C233.783000,95.270100,230.773000,98.280100,228.463000,98.620100C226.153000,98.960100,223.463000,96.110100,219.903000,96.780100C216.343000,97.450100,215.563000,100.460000,213.713000,101.630000C211.863000,102.800000,207.533000,102.800000,207.033000,105.470000C206.533000,108.140000,212.553000,109.660000,214.033000,111.330000C215.513000,113,212.193000,118.680000,213.693000,119.850000C215.193000,121.020000,224.563000,112.850000,226.913000,110.850000C229.263000,108.850000,231.253000,100.160000,236.273000,100.320000C241.293000,100.480000,242.963000,109.010000,244.633000,109.850000C246.303000,110.690000,249.983000,107.850000,255.493000,109.010000C261.003000,110.170000,264.853000,122.220000,265.863000,125.900000C266.873000,129.580000,269.203000,133.260000,267.203000,134.760000C265.203000,136.260000,256.203000,133.760000,254.993000,131.420000C253.783000,129.080000,260.993000,125.560000,260.513000,124.730000C260.033000,123.900000,255.833000,122.730000,253.653000,124.030000C251.473000,125.330000,250.483000,128.030000,248.143000,128.740000C245.803000,129.450000,239.613000,122.390000,237.943000,124.400000C236.273000,126.410000,239.613000,132.760000,241.283000,134.260000C242.953000,135.760000,249.143000,136.600000,249.643000,138.260000C250.143000,139.920000,245.463000,143.610000,239.783000,143.260000C234.103000,142.910000,229.413000,138.580000,227.243000,140.420000C225.073000,142.260000,226.243000,147.100000,224.733000,148.780000C223.223000,150.460000,215.033000,149.280000,211.023000,153.620000C207.013000,157.960000,205.093000,164.530000,201.093000,168.210000C197.093000,171.890000,195.243000,167.210000,189.893000,172.390000C184.543000,177.570000,183.703000,189.110000,183.533000,193.120000C183.363000,197.130000,183.533000,200.310000,182.203000,199.810000C180.873000,199.310000,179.023000,195.810000,178.523000,193.620000C178.023000,191.430000,179.693000,187.770000,179.693000,186.430000C179.693000,185.090000,172.003000,178.240000,167.483000,177.570000C162.963000,176.900000,158.953000,180.570000,155.613000,183.250000C152.273000,185.930000,146.253000,185.430000,144.083000,187.600000C141.913000,189.770000,140.233000,209,141.903000,213.520000C143.573000,218.040000,145.753000,218.030000,151.103000,215.690000C156.453000,213.350000,153.443000,208.830000,156.623000,209.840000C159.803000,210.850000,161.463000,214.190000,161.463000,216.840000C161.463000,219.490000,155.113000,225.840000,155.953000,227.710000C156.793000,229.580000,162.303000,227.370000,164.953000,228.210000C167.603000,229.050000,168.953000,230.720000,168.133000,237.570000C167.313000,244.420000,167.803000,249.780000,171.813000,252.030000C175.823000,254.280000,178.083000,248.770000,179.813000,249.530000C181.543000,250.290000,184.083000,254.290000,186.593000,254.040000C189.103000,253.790000,187.843000,251.530000,192.593000,250.040000C197.343000,248.550000,195.593000,247.530000,196.593000,244.520000C197.593000,241.510000,200.593000,239,203.863000,240.520000C207.133000,242.040000,204.863000,244.280000,205.113000,246.790000C205.363000,249.300000,211.113000,249.550000,215.653000,251.050000C220.193000,252.550000,222.653000,251.050000,231.653000,254.050000C240.653000,257.050000,241.183000,266.050000,244.943000,267.590000C248.703000,269.130000,261.243000,266.590000,270.273000,273.110000C279.303000,279.630000,276.793000,291.670000,281.273000,295.180000C285.753000,298.690000,302.593000,303.450000,309.113000,304.710000C315.633000,305.970000,316.633000,301.450000,321.903000,302.710000C327.173000,303.970000,330.173000,305.470000,331.903000,312.710000C333.613000,319.140000,314.013000,332.550000,311.763000,338.570000Z" transform="matrix(1 0 0 1 -0.96792603000003 -1.10145685999998)" opacity="0.2" fill="rgb(0,0,0)" stroke="none" stroke-width="1"/><path id="eyrb93BANlz5" d="M177.003000,210.340000C177.173000,211.760000,181.353000,212.340000,186.363000,215.190000C191.373000,218.040000,193.223000,226.390000,195.893000,226.190000C198.563000,225.990000,197.733000,222.190000,198.743000,221.190000C199.753000,220.190000,201.413000,218.010000,198.743000,215.840000C196.073000,213.670000,193.463000,208.980000,188.573000,208.310000C183.683000,207.640000,182.853000,205.640000,180.683000,205.810000C180.125000,205.814000,179.575000,205.941000,179.072000,206.182000C178.569000,206.424000,178.125000,206.773000,177.774000,207.207000C177.422000,207.640000,177.170000,208.145000,177.037000,208.687000C176.904000,209.229000,176.892000,209.793000,177.003000,210.340000Z" opacity="0.2" fill="rgb(0,0,0)" stroke="none" stroke-width="1"/><path id="eyrb93BANlz6" d="M204.593000,224.380000C203.843000,226.430000,204.593000,227.900000,209.943000,229.230000C215.293000,230.560000,220.303000,227.900000,218.633000,226.810000C216.963000,225.720000,214.453000,226.220000,215.463000,224.380000C216.473000,222.540000,216.123000,219.870000,211.773000,220.380000C207.423000,220.890000,205.263000,222.550000,204.593000,224.380000Z" opacity="0.2" fill="rgb(0,0,0)" stroke="none" stroke-width="1"/><path id="eyrb93BANlz7" d="M223.313000,224.950000C221.493000,225.220000,220.473000,228.400000,222.313000,230.400000C224.153000,232.400000,224.153000,232.070000,226.313000,230.400000C228.473000,228.730000,231.833000,227.900000,230.993000,226.230000C230.153000,224.560000,225.153000,224.690000,223.313000,224.950000Z" opacity="0.2" fill="rgb(0,0,0)" stroke="none" stroke-width="1"/><path id="eyrb93BANlz8" d="M237.863000,231.790000C238.683000,229.280000,242.863000,231.790000,244.713000,234.420000C246.563000,237.050000,245.713000,240.940000,244.713000,243.780000C243.713000,246.620000,243.043000,249.960000,240.713000,248.630000C238.383000,247.300000,240.883000,243.280000,240.543000,240.940000C240.203000,238.600000,237.193000,233.840000,237.863000,231.790000Z" opacity="0.2" fill="rgb(0,0,0)" stroke="none" stroke-width="1"/><path id="eyrb93BANlz9" d="M309.923000,92.310300C309.043000,94.410300,313.093000,95.150300,315.433000,96.490300C317.773000,97.830300,319.613000,98.660300,320.953000,96.490300C322.293000,94.320300,320.453000,91.800300,318.613000,91.300300C316.773000,90.800300,310.753000,90.300300,309.923000,92.310300Z" opacity="0.2" fill="rgb(0,0,0)" stroke="none" stroke-width="1"/><path id="eyrb93BANlz10" d="M341.513000,111.870000C343.063000,113.490000,345.693000,113.200000,347.513000,115.550000C349.333000,117.900000,348.683000,121.900000,351.023000,123.070000C353.363000,124.240000,355.023000,123.070000,355.203000,121.400000C355.383000,119.730000,351.863000,115.550000,352.203000,114.710000C352.543000,113.870000,357.053000,115.880000,358.063000,118.390000C359.073000,120.900000,357.063000,124.390000,359.393000,125.070000C361.723000,125.750000,361.233000,122.730000,362.243000,122.070000C363.253000,121.410000,365.413000,121.730000,365.243000,119.720000C365.073000,117.710000,362.393000,113.370000,360.243000,111.870000C358.093000,110.370000,356.393000,108.690000,352.723000,107.870000C349.053000,107.050000,345.533000,107.710000,343.723000,109.210000C341.913000,110.710000,340.563000,110.860000,341.513000,111.870000Z" opacity="0.2" fill="rgb(0,0,0)" stroke="none" stroke-width="1"/><path id="eyrb93BANlz11" d="M413.853000,143.380000C413.749000,144.057000,413.418000,144.678000,412.913000,145.140000C409.393000,147.640000,405.213000,138.950000,400.373000,137.280000C395.533000,135.610000,393.373000,129.420000,392.373000,130.760000C391.373000,132.100000,391.703000,133.940000,390.203000,136.110000C388.703000,138.280000,386.523000,137.780000,385.523000,141.960000C384.523000,146.140000,390.203000,153.830000,388.863000,156.340000C387.523000,158.850000,385.863000,158.010000,383.173000,157.850000C380.483000,157.690000,381.003000,160.020000,377.503000,159.010000C374.003000,158,376.993000,153.660000,371.503000,148.480000C366.013000,143.300000,364.143000,142.300000,365.323000,139.950000C366.503000,137.600000,364.823000,134.270000,367.323000,133.950000C369.823000,133.630000,371.843000,137.290000,373.513000,138.290000C375.183000,139.290000,377.353000,136.290000,377.513000,133.610000C377.673000,130.930000,371.663000,127.260000,369.513000,125.180000C367.363000,123.100000,367.093000,115.540000,367.933000,114.060000C368.773000,112.580000,371.283000,113.060000,371.933000,109.380000C372.323000,107.220000,368.933000,103.610000,366.013000,101C384.361000,112.158000,400.564000,126.511000,413.853000,143.380000Z" opacity="0.2" fill="rgb(0,0,0)" stroke="none" stroke-width="1"/><path id="eyrb93BANlz12" d="M438.823000,293.270000C439.323000,287.920000,436.643000,287.580000,439.323000,277.720000C442.003000,267.860000,436.483000,257.320000,434.473000,255.150000C432.463000,252.980000,428.123000,253.640000,424.613000,255.820000C421.103000,258,423.613000,259.660000,421.263000,260.500000C418.913000,261.340000,416.583000,259.990000,414.413000,260.160000C412.243000,260.330000,410.233000,265.850000,405.553000,265.680000C400.873000,265.510000,397.863000,258.820000,394.353000,254.060000C390.843000,249.300000,383.643000,246.290000,381.353000,240.430000C379.063000,234.570000,383.523000,225.560000,382.523000,218.700000C381.523000,211.840000,377.003000,213.350000,376.163000,209.510000C375.323000,205.670000,376.833000,207.510000,378.003000,203.820000C379.173000,200.130000,376.663000,198.140000,379.003000,191.820000C381.343000,185.500000,385.523000,182.290000,384.513000,179.450000C383.503000,176.610000,380.333000,171.930000,380.163000,168.590000C379.993000,165.250000,383.343000,165.410000,389.693000,160.720000C396.043000,156.030000,397.693000,156.380000,402.573000,158.050000C406.053000,159.335000,409.631000,160.338000,413.273000,161.050000C416.113000,161.550000,419.963000,168.910000,421.133000,168.570000C422.303000,168.230000,422.473000,166.070000,422.973000,162.890000C423.292000,161.509000,424.016000,160.256000,425.053000,159.290000C443.922000,189.552000,453.330000,224.758000,452.070000,260.400000C450.810000,296.041000,438.941000,330.495000,417.983000,359.350000C435.003000,333.290000,438.313000,298.610000,438.823000,293.270000Z" opacity="0.2" fill="rgb(0,0,0)" stroke="none" stroke-width="1"/></g><path id="eyrb93BANlz13" d="M411.813000,367.280000C392.711000,390.690000,367.996000,408.886000,339.969000,420.174000C311.942000,431.462000,281.515000,435.475000,251.520000,431.839000C221.525000,428.202000,192.938000,417.036000,168.420000,399.378000C143.902000,381.721000,124.251000,358.146000,111.296000,330.850000C98.340800,303.554000,92.503100,273.424000,94.326400,243.264000C96.149700,213.105000,105.575000,183.897000,121.724000,158.360000C137.873000,132.824000,160.221000,111.788000,186.688000,97.213000C213.154000,82.637600,242.878000,74.996200,273.093000,75C278.006000,75,282.873000,75.196700,287.693000,75.590000C289.023000,75.690000,290.353000,75.810000,291.693000,75.960000C266.381000,78.708500,242.056000,87.309700,220.643000,101.083000C199.229000,114.857000,181.315000,133.424000,168.317000,155.317000C155.319000,177.210000,147.595000,201.828000,145.754000,227.222000C143.914000,252.616000,148.009000,278.090000,157.714000,301.628000C167.420000,325.166000,182.470000,346.123000,201.674000,362.840000C220.878000,379.557000,243.708000,391.575000,268.359000,397.944000C293.011000,404.313000,318.806000,404.858000,343.704000,399.536000C368.602000,394.214000,391.920000,383.171000,411.813000,367.280000Z" opacity="0.1" fill="rgb(0,0,0)" stroke="none" stroke-width="1"/><path id="eyrb93BANlz14" d="M452.153000,254.060000C452.217000,291.888000,440.238000,328.754000,417.953000,359.320000C401.157000,382.413000,379.106000,401.177000,353.623000,414.060000C375.808000,401.357000,395.053000,384.103000,410.093000,363.430000C431.175000,334.409000,443.114000,299.754000,444.381000,263.906000C445.648000,228.058000,436.184000,192.647000,417.203000,162.210000C413.755000,156.673000,410.002000,151.331000,405.963000,146.210000C392.613000,129.239000,376.333000,114.794000,357.893000,103.560000C333.983000,89.012800,306.993000,80.278700,279.093000,78.060000C274.263000,77.670000,269.353000,77.470000,264.423000,77.470000C249.848000,77.460400,235.326000,79.213200,221.173000,82.690000C238.008000,77.589500,255.502000,74.998300,273.093000,75C278.006000,75,282.873000,75.196700,287.693000,75.590000C332.512000,79.242700,374.314000,99.630300,404.786000,132.699000C435.258000,165.767000,452.168000,209.093000,452.153000,254.060000Z" opacity="0.3" fill="rgb(255,255,255)" stroke="none" stroke-width="1"/><path id="eyrb93BANlz15" d="M286.330000,208.340000C314.796000,205.755000,342.887000,200.023000,370.090000,191.250000C370.090000,191.250000,366.010000,188.400000,361.490000,189.250000C361.490000,189.250000,352.720000,171.560000,337.810000,174.860000C323.940000,177.860000,318.300000,191.350000,318.310000,191.400000C318.320000,191.450000,311.840000,186.840000,305.620000,190.320000C299.400000,193.800000,295.880000,201.650000,295.880000,201.650000C295.880000,201.650000,288.870000,205.270000,286.330000,208.340000Z" opacity="0.7" fill="rgb(219,219,219)" stroke="none" stroke-width="1"/><path id="eyrb93BANlz16" d="M166.720000,234.930000C131.016000,226.957000,96.624100,213.961000,64.570100,196.330000C64.570100,196.260000,64.510100,191.280000,78.110100,197.200000C78.110100,197.130000,90.470100,180.920000,110.110000,191.680000C122.320000,198.330000,128.690000,213.680000,128.680000,213.680000C128.670000,213.680000,138.040000,206.250000,145.610000,210.400000C153.180000,214.550000,157.700000,226.860000,157.700000,226.870000C157.700000,226.880000,165.520000,231.740000,166.720000,234.930000Z" fill="rgb(235,235,235)" stroke="none" stroke-width="1"/><path id="eyrb93BANlz17" d="M437.800000,217.280000C405.744000,234.907000,371.352000,247.903000,335.650000,255.880000C335.650000,255.810000,335.650000,250.880000,350.170000,246.110000C350.170000,246.040000,363.450000,220.110000,383.170000,216.060000C395.450000,213.470000,401.590000,224.060000,401.600000,224.130000C401.610000,224.200000,410.750000,209.730000,417.940000,208.300000C425.130000,206.870000,429.350000,215.860000,429.350000,215.880000C429.350000,215.900000,436.710000,215,437.800000,217.280000Z" fill="rgb(235,235,235)" stroke="none" stroke-width="1"/><path id="eyrb93BANlz18" d="M156.220000,323.690000C135.691000,318.502000,115.624000,311.636000,96.220000,303.160000C98.081100,302.097000,100.282000,301.796000,102.360000,302.320000C102.360000,302.320000,108.620000,289.970000,119.290000,293.750000C129.220000,297.210000,133.290000,307.750000,133.290000,307.750000C134.705000,306.986000,136.304000,306.628000,137.910000,306.717000C139.517000,306.805000,141.067000,307.336000,142.390000,308.250000C146.850000,311.480000,149.390000,317.640000,149.390000,317.640000C149.390000,317.640000,154.380000,321.130000,156.220000,323.690000Z" opacity="0.7" fill="rgb(219,219,219)" stroke="none" stroke-width="1"/><path id="eyrb93BANlz19" d="M411.100000,298.370000C410.840000,295.780000,409.100000,293.210000,405.930000,293.210000C402.760000,293.210000,401.020000,295.780000,400.760000,298.370000C400.360000,302.370000,403.060000,305.980000,405.930000,309.280000C408.800000,306,411.500000,302.360000,411.100000,298.370000ZM405.930000,301.240000C405.370000,301.240000,404.823000,301.074000,404.358000,300.763000C403.892000,300.452000,403.530000,300.010000,403.315000,299.493000C403.101000,298.976000,403.045000,298.407000,403.154000,297.858000C403.264000,297.309000,403.533000,296.805000,403.929000,296.409000C404.325000,296.013000,404.829000,295.744000,405.378000,295.634000C405.927000,295.525000,406.496000,295.581000,407.013000,295.795000C407.530000,296.010000,407.972000,296.372000,408.283000,296.838000C408.594000,297.303000,408.760000,297.850000,408.760000,298.410000C408.757000,299.160000,408.458000,299.878000,407.928000,300.408000C407.398000,300.938000,406.680000,301.237000,405.930000,301.240000Z" fill="rgb(255,255,255)" stroke="none" stroke-width="1"/><g id="eyrb93BANlz20_ts" transform="translate(235.645065,373.844986) scale(0,0)"><path id="eyrb93BANlz20" d="M242.570000,370C242.230000,366.530000,239.840000,363.080000,235.640000,363.080000C231.440000,363.080000,229.060000,366.530000,228.720000,370C228.190000,375.350000,231.800000,380.190000,235.640000,384.610000C239.500000,380.170000,243.100000,375.330000,242.570000,370ZM235.640000,373.840000C234.891000,373.838000,234.159000,373.614000,233.537000,373.196000C232.915000,372.778000,232.431000,372.186000,232.146000,371.493000C231.860000,370.800000,231.787000,370.039000,231.934000,369.304000C232.081000,368.570000,232.443000,367.895000,232.974000,367.366000C233.504000,366.837000,234.179000,366.477000,234.914000,366.332000C235.649000,366.186000,236.411000,366.262000,237.103000,366.549000C237.795000,366.836000,238.386000,367.322000,238.802000,367.945000C239.218000,368.568000,239.440000,369.300000,239.440000,370.050000C239.435000,371.053000,239.032000,372.013000,238.319000,372.720000C237.607000,373.427000,236.643000,373.822000,235.640000,373.820000L235.640000,373.840000Z" transform="translate(-235.645065,-373.844986)" fill="rgb(255,255,255)" stroke="none" stroke-width="1"/></g><g id="eyrb93BANlz21_ts" transform="translate(375.526825,170.615005) scale(0,0)"><path id="eyrb93BANlz21" d="M382.450000,166.760000C382.110000,163.300000,379.720000,159.850000,375.520000,159.850000C371.320000,159.850000,368.940000,163.300000,368.600000,166.760000C368.070000,172.110000,371.680000,176.960000,375.520000,181.380000C379.380000,177,383,172.110000,382.450000,166.760000ZM375.520000,170.610000C374.768000,170.610000,374.033000,170.386000,373.408000,169.968000C372.782000,169.550000,372.295000,168.956000,372.008000,168.261000C371.721000,167.567000,371.646000,166.802000,371.794000,166.065000C371.941000,165.327000,372.304000,164.650000,372.836000,164.119000C373.369000,163.588000,374.047000,163.227000,374.785000,163.081000C375.522000,162.936000,376.287000,163.013000,376.981000,163.302000C377.675000,163.591000,378.268000,164.079000,378.684000,164.706000C379.101000,165.332000,379.322000,166.068000,379.320000,166.820000C379.320000,167.318000,379.221000,167.812000,379.030000,168.272000C378.839000,168.733000,378.559000,169.151000,378.206000,169.503000C377.853000,169.855000,377.434000,170.134000,376.973000,170.324000C376.512000,170.514000,376.018000,170.611000,375.520000,170.610000Z" transform="translate(-375.526825,-170.615005)" fill="rgb(255,255,255)" stroke="none" stroke-width="1"/></g><path id="eyrb93BANlz22" d="M283.930000,309.910000C283.670000,307.320000,281.930000,304.740000,278.760000,304.740000C275.590000,304.740000,273.840000,307.320000,273.590000,309.910000C273.190000,313.910000,275.880000,317.520000,278.760000,320.820000C281.630000,317.520000,284.330000,313.900000,283.930000,309.910000ZM278.760000,312.780000C278.197000,312.782000,277.647000,312.617000,277.178000,312.305000C276.710000,311.994000,276.344000,311.551000,276.128000,311.031000C275.912000,310.512000,275.855000,309.940000,275.964000,309.388000C276.073000,308.836000,276.344000,308.329000,276.742000,307.932000C277.140000,307.534000,277.647000,307.263000,278.198000,307.154000C278.750000,307.045000,279.322000,307.102000,279.841000,307.318000C280.361000,307.534000,280.804000,307.900000,281.115000,308.368000C281.427000,308.837000,281.592000,309.387000,281.590000,309.950000C281.587000,310.700000,281.288000,311.418000,280.758000,311.948000C280.228000,312.478000,279.510000,312.777000,278.760000,312.780000Z" fill="rgb(255,255,255)" stroke="none" stroke-width="1"/><g id="eyrb93BANlz23_ts" transform="translate(171.750000,261.964996) scale(0,0)"><path id="eyrb93BANlz23" d="M176.920000,259.090000C176.660000,256.500000,174.920000,253.930000,171.750000,253.930000C168.580000,253.930000,166.840000,256.500000,166.580000,259.090000C166.180000,263.090000,168.880000,266.700000,171.750000,270C174.620000,266.700000,177.320000,263.080000,176.920000,259.090000ZM171.750000,262C171.191000,261.998000,170.645000,261.830000,170.181000,261.518000C169.716000,261.206000,169.355000,260.763000,169.143000,260.246000C168.930000,259.729000,168.875000,259.160000,168.986000,258.611000C169.096000,258.063000,169.366000,257.560000,169.762000,257.165000C170.159000,256.770000,170.663000,256.502000,171.212000,256.393000C171.760000,256.285000,172.329000,256.342000,172.845000,256.556000C173.362000,256.771000,173.803000,257.133000,174.114000,257.598000C174.424000,258.064000,174.590000,258.610000,174.590000,259.170000C174.591000,259.543000,174.519000,259.912000,174.376000,260.257000C174.234000,260.601000,174.025000,260.914000,173.761000,261.177000C173.496000,261.440000,173.183000,261.649000,172.838000,261.790000C172.493000,261.931000,172.123000,262.002000,171.750000,262Z" transform="translate(-171.750000,-261.964996)" fill="rgb(255,255,255)" stroke="none" stroke-width="1"/></g><g id="eyrb93BANlz24_ts" transform="translate(181.254997,126.060005) scale(0,0)"><path id="eyrb93BANlz24" d="M188.180000,122.210000C187.840000,118.750000,185.450000,115.300000,181.250000,115.300000C177.050000,115.300000,174.670000,118.750000,174.330000,122.210000C173.800000,127.560000,177.410000,132.400000,181.250000,136.820000C185.100000,132.400000,188.710000,127.560000,188.180000,122.210000ZM181.250000,126.060000C180.498000,126.060000,179.764000,125.837000,179.139000,125.419000C178.514000,125.002000,178.027000,124.408000,177.739000,123.714000C177.452000,123.020000,177.376000,122.256000,177.523000,121.518000C177.670000,120.781000,178.032000,120.104000,178.563000,119.573000C179.094000,119.041000,179.772000,118.679000,180.509000,118.533000C181.246000,118.386000,182.010000,118.461000,182.704000,118.749000C183.399000,119.037000,183.992000,119.524000,184.410000,120.149000C184.827000,120.774000,185.050000,121.508000,185.050000,122.260000C185.050000,122.759000,184.952000,123.253000,184.761000,123.714000C184.570000,124.175000,184.290000,124.594000,183.937000,124.947000C183.584000,125.300000,183.165000,125.580000,182.704000,125.771000C182.243000,125.962000,181.749000,126.060000,181.250000,126.060000Z" transform="translate(-181.254997,-126.060005)" fill="rgb(255,255,255)" stroke="none" stroke-width="1"/></g><g id="eyrb93BANlz25" opacity="0.6"><path id="eyrb93BANlz26" d="M272.614000,326.530000C272.614000,326.530000,100.314000,364.040000,83.113800,334.750000C75.113800,321.090000,112.834000,300.800000,112.834000,300.800000C112.834000,300.800000,87.733800,318.680000,99.183800,325.720000C120.534000,338.830000,238.394000,309.060000,238.394000,309.060000L272.614000,326.530000Z" opacity="0.6" fill="rgb(235,235,235)" stroke="none" stroke-width="1"/><path id="eyrb93BANlz27" d="M170.114000,347.500000L195.874000,343.730000C200.164000,343.080000,204.454000,342.520000,208.734000,341.830000C213.014000,341.140000,217.294000,340.540000,221.574000,339.830000C225.854000,339.120000,230.124000,338.480000,234.384000,337.730000C238.644000,336.980000,242.894000,336.210000,247.174000,335.510000C255.684000,333.910000,264.174000,332.190000,272.664000,330.350000C264.487000,333.332000,256.139000,335.820000,247.664000,337.800000C243.424000,338.800000,239.164000,339.700000,234.894000,340.520000C230.624000,341.340000,226.334000,342.060000,222.044000,342.790000C217.754000,343.520000,213.444000,344.070000,209.124000,344.600000C206.974000,344.860000,204.814000,345.120000,202.654000,345.350000C200.494000,345.580000,198.324000,345.830000,196.164000,346.010000C187.444000,346.850000,178.764000,347.440000,170.114000,347.500000Z" opacity="0.6" fill="rgb(235,235,235)" stroke="none" stroke-width="1"/><path id="eyrb93BANlz28" d="M105.044000,312.370000C104.380000,313.335000,103.880000,314.402000,103.564000,315.530000C103.429000,316.063000,103.362000,316.610000,103.364000,317.160000C103.386000,317.667000,103.512000,318.163000,103.734000,318.620000C104.201000,319.527000,104.953000,320.258000,105.874000,320.700000C106.824000,321.204000,107.831000,321.593000,108.874000,321.860000C111.107000,322.382000,113.383000,322.696000,115.674000,322.800000C117.984000,322.980000,120.334000,323.010000,122.674000,322.990000C125.014000,322.970000,127.374000,322.930000,129.734000,322.840000C132.094000,322.750000,134.454000,322.640000,136.814000,322.540000C141.554000,322.340000,146.304000,322.030000,151.104000,322.010000C146.507000,323.263000,141.834000,324.219000,137.114000,324.870000C135.934000,325.060000,134.744000,325.210000,133.554000,325.320000C132.364000,325.430000,131.174000,325.590000,129.974000,325.670000C127.584000,325.860000,125.174000,325.950000,122.764000,325.990000C117.944000,325.920000,113.044000,325.730000,108.264000,324.090000C107.046000,323.666000,105.891000,323.077000,104.834000,322.340000C103.686000,321.564000,102.825000,320.433000,102.384000,319.120000C102.037000,317.817000,102.194000,316.432000,102.824000,315.240000C103.363000,314.143000,104.118000,313.167000,105.044000,312.370000Z" opacity="0.6" fill="rgb(235,235,235)" stroke="none" stroke-width="1"/></g><g id="eyrb93BANlz29_to" transform="translate(156.231700,345.822937)"><g id="eyrb93BANlz29_ts" transform="scale(0.850000,0.850000)"><g id="eyrb93BANlz29" transform="translate(-323.157181,-279.865578)"><path id="eyrb93BANlz30" d="M298.984000,334.750000C297.684000,333.250000,279.574000,320.600000,278.214000,319.650000L281.304000,319.120000C281.304000,319.120000,297.864000,333.190000,298.984000,334.750000Z" fill="rgb(255,255,255)" stroke="none" stroke-width="1"/><path id="eyrb93BANlz31" d="M298.984000,334.750000C297.684000,333.250000,279.574000,320.600000,278.214000,319.650000L281.304000,319.120000C281.304000,319.120000,297.864000,333.190000,298.984000,334.750000Z" opacity="0.5" fill="rgb(255,255,255)" stroke="none" stroke-width="1"/><path id="eyrb93BANlz32" d="M299.044000,334.860000C299.044000,334.860000,299.044000,334.860000,299.044000,334.920000C298.904000,335.240000,297.664000,335.520000,296.274000,335.710000L296.224000,335.710000C294.943000,335.947000,293.633000,335.974000,292.344000,335.790000C291.954000,335.520000,278.884000,328.980000,270.884000,324.980000L270.564000,324.830000L270.504000,324.830000L269.374000,324.260000L266.074000,322.620000L264.794000,321.980000L278.244000,319.680000C279.014000,320.210000,285.124000,324.480000,290.534000,328.370000L291.094000,328.770000C291.594000,329.130000,292.094000,329.490000,292.574000,329.830000C294.805000,331.363000,296.955000,333.012000,299.014000,334.770000C299.014000,334.770000,299.014000,334.820000,299.014000,334.840000L299.044000,334.860000Z" fill="rgb(255,255,255)" stroke="none" stroke-width="1"/><g id="eyrb93BANlz33" opacity="0.1"><path id="eyrb93BANlz34" d="M299.044000,334.860000C299.044000,334.860000,299.044000,334.860000,299.044000,334.920000C298.904000,335.240000,297.664000,335.520000,296.274000,335.710000L296.224000,335.710000C294.943000,335.947000,293.633000,335.974000,292.344000,335.790000C291.944000,335.520000,278.534000,328.790000,270.564000,324.790000C271.874000,325.430000,289.074000,333.700000,292.564000,329.790000C294.795000,331.323000,296.945000,332.971000,299.004000,334.730000C299.004000,334.730000,299.004000,334.780000,299.004000,334.800000L299.044000,334.860000Z" opacity="0.1" fill="rgb(0,0,0)" stroke="none" stroke-width="1"/></g><path id="eyrb93BANlz35" d="M476.214000,349.620000C476.214000,351.420000,466.304000,352,464.954000,351.620000C463.604000,351.240000,355.604000,308.740000,355.604000,308.740000L395.294000,293.030000L396.444000,293.820000L396.944000,294.170000C404.264000,299.230000,426.114000,314.380000,445.194000,327.710000L446.324000,328.500000L447.824000,329.500000C461.054000,338.800000,472.524000,346.870000,476.214000,349.620000Z" fill="rgb(255,255,255)" stroke="none" stroke-width="1"/><path id="eyrb93BANlz36" d="M476.214000,349.620000C466.554000,342.410000,403.544000,298.750000,395.294000,293.040000L400.294000,291.040000C400.294000,291.040000,473.694000,346.870000,475.914000,349.090000C476.078000,349.221000,476.185000,349.411000,476.214000,349.620000Z" fill="rgb(255,255,255)" stroke="none" stroke-width="1"/><path id="eyrb93BANlz37" d="M476.214000,349.620000C466.554000,342.410000,403.544000,298.750000,395.294000,293.040000L400.294000,291.040000C400.294000,291.040000,473.694000,346.870000,475.914000,349.090000C476.078000,349.221000,476.185000,349.411000,476.214000,349.620000Z" opacity="0.5" fill="rgb(255,255,255)" stroke="none" stroke-width="1"/><g id="eyrb93BANlz38" opacity="0.5"><path id="eyrb93BANlz39" d="M476.214000,349.620000C476.214000,351.420000,466.304000,352,464.954000,351.620000C463.604000,351.240000,355.604000,308.740000,355.604000,308.740000L395.294000,293.030000C395.294000,293.030000,385.484000,304.250000,408.774000,321.520000C424.644000,333.290000,441.544000,335.730000,447.774000,329.520000C461.054000,338.800000,472.524000,346.870000,476.214000,349.620000Z" opacity="0.1" fill="rgb(0,0,0)" stroke="none" stroke-width="1"/></g><path id="eyrb93BANlz40" d="M386.264000,322.680000C383.194000,324.170000,379.864000,325.330000,379.614000,322.250000C379.524000,320.990000,380.504000,319.640000,385.434000,317.250000C386.584000,316.690000,389.434000,315.450000,390.244000,318.010000C391.054000,320.570000,387.414000,322.110000,386.264000,322.680000Z" fill="rgb(255,255,255)" stroke="none" stroke-width="1"/><path id="eyrb93BANlz41" d="M386.264000,322.680000C383.194000,324.170000,379.864000,325.330000,379.614000,322.250000C379.524000,320.990000,380.504000,319.640000,385.434000,317.250000C386.584000,316.690000,389.434000,315.450000,390.244000,318.010000C391.054000,320.570000,387.414000,322.110000,386.264000,322.680000Z" opacity="0.1" fill="rgb(0,0,0)" stroke="none" stroke-width="1"/><path id="eyrb93BANlz42" d="M411.294000,332.920000C408.224000,334.410000,404.884000,335.580000,404.644000,332.500000C404.544000,331.230000,405.524000,329.880000,410.464000,327.500000C411.614000,326.940000,414.464000,325.710000,415.274000,328.270000C416.084000,330.830000,412.444000,332.360000,411.294000,332.920000Z" fill="rgb(255,255,255)" stroke="none" stroke-width="1"/><path id="eyrb93BANlz43" d="M411.294000,332.920000C408.224000,334.410000,404.884000,335.580000,404.644000,332.500000C404.544000,331.230000,405.524000,329.880000,410.464000,327.500000C411.614000,326.940000,414.464000,325.710000,415.274000,328.270000C416.084000,330.830000,412.444000,332.360000,411.294000,332.920000Z" opacity="0.1" fill="rgb(0,0,0)" stroke="none" stroke-width="1"/><path id="eyrb93BANlz44" d="M436.314000,343.160000C433.254000,344.650000,429.914000,345.820000,429.674000,342.740000C429.574000,341.480000,430.554000,340.130000,435.484000,337.740000C436.644000,337.190000,439.484000,335.950000,440.304000,338.510000C441.124000,341.070000,437.474000,342.600000,436.314000,343.160000Z" fill="rgb(255,255,255)" stroke="none" stroke-width="1"/><path id="eyrb93BANlz45" d="M436.314000,343.160000C433.254000,344.650000,429.914000,345.820000,429.674000,342.740000C429.574000,341.480000,430.554000,340.130000,435.484000,337.740000C436.644000,337.190000,439.484000,335.950000,440.304000,338.510000C441.124000,341.070000,437.474000,342.600000,436.314000,343.160000Z" opacity="0.1" fill="rgb(0,0,0)" stroke="none" stroke-width="1"/><path id="eyrb93BANlz46" d="M428.114000,316.290000C425.114000,321.660000,418.254000,323.590000,413.924000,325.290000C402.414000,329.890000,394.074000,332.470000,389.924000,322.020000C389.431000,320.812000,389.121000,319.538000,389.004000,318.240000C388.324000,310.360000,396.494000,306.420000,400.634000,304.240000C405.634000,301.600000,409.174000,299.900000,411.814000,298.790000C416.114000,296.970000,418.034000,296.790000,420.004000,296.680000C422.334000,296.600000,427.584000,297.190000,429.314000,306.830000C430.061000,310.025000,429.635000,313.382000,428.114000,316.290000Z" fill="rgb(255,255,255)" stroke="none" stroke-width="1"/><path id="eyrb93BANlz47" d="M428.274000,308.760000C428.274000,314.630000,424.604000,319.390000,420.074000,319.390000C415.544000,319.390000,411.874000,314.630000,411.874000,308.760000C411.874000,302.890000,415.544000,298.130000,420.074000,298.130000C424.604000,298.130000,428.274000,302.890000,428.274000,308.760000Z" fill="rgb(38,50,56)" stroke="none" stroke-width="1"/><path id="eyrb93BANlz48" d="M427.314000,308.760000C427.314000,313.950000,424.074000,318.150000,420.074000,318.150000C416.074000,318.150000,412.824000,313.950000,412.824000,308.760000C412.824000,303.570000,416.074000,299.360000,420.074000,299.360000C424.074000,299.360000,427.314000,303.570000,427.314000,308.760000Z" fill="rgb(69,90,100)" stroke="none" stroke-width="1"/><path id="eyrb93BANlz49" d="M256.414000,305.940000L254.514000,306.640000L250.234000,308.190000L235.434000,301.800000C221.114000,295.650000,204.114000,288.410000,200.864000,287.290000L201.274000,287.410000L201.654000,287.530000L202.154000,287.690000L202.434000,287.790000L203.564000,288.150000L204.724000,288.530000L207.974000,289.600000L209.094000,289.970000L210.094000,290.320000L210.664000,290.510000L212.434000,291.100000L213.604000,291.490000L228.834000,296.610000L230.274000,297.100000L235.944000,299.010000L245.724000,302.320000L247.104000,302.790000C248.684000,303.320000,250.104000,303.790000,251.364000,304.230000L252.454000,304.600000L252.954000,304.770000L253.214000,304.850000C255.254000,305.560000,256.414000,305.940000,256.414000,305.940000Z" fill="rgb(255,255,255)" stroke="none" stroke-width="1"/><path id="eyrb93BANlz50" d="M256.414000,305.940000L254.514000,306.640000L250.234000,308.190000L235.434000,301.800000C221.114000,295.650000,204.114000,288.410000,200.864000,287.290000L201.274000,287.410000L201.654000,287.530000L202.154000,287.690000L202.434000,287.790000L203.564000,288.150000L204.724000,288.530000L207.974000,289.600000L209.094000,289.970000L210.094000,290.320000L210.664000,290.510000L212.434000,291.100000L213.604000,291.490000L228.834000,296.610000L230.274000,297.100000L235.944000,299.010000L245.724000,302.320000L247.104000,302.790000C248.684000,303.320000,250.104000,303.790000,251.364000,304.230000L252.454000,304.600000L252.954000,304.770000L253.214000,304.850000C255.254000,305.560000,256.414000,305.940000,256.414000,305.940000Z" opacity="0.5" fill="rgb(255,255,255)" stroke="none" stroke-width="1"/><path id="eyrb93BANlz51" d="M250.234000,308.190000L238.774000,312.370000C238.774000,312.370000,213.174000,300.490000,197.904000,293.040000L197.744000,292.970000L197.534000,292.870000L193.114000,290.710000C189.164000,288.710000,186.664000,287.390000,186.764000,287.210000C187.184000,286.360000,196.684000,286.150000,200.484000,287.210000L200.594000,287.210000L200.834000,287.290000C203.994000,288.360000,219.944000,295.140000,233.954000,301.160000L234.274000,301.290000L235.404000,301.780000L250.234000,308.190000Z" fill="rgb(255,255,255)" stroke="none" stroke-width="1"/><g id="eyrb93BANlz52" opacity="0.1"><path id="eyrb93BANlz53" d="M250.234000,308.190000L238.774000,312.370000C238.774000,312.370000,213.174000,300.490000,197.904000,293.040000C200.434000,294.120000,226.344000,305.530000,232.724000,303.940000C233.317000,303.834000,233.875000,303.584000,234.348000,303.210000C234.821000,302.837000,235.194000,302.352000,235.434000,301.800000L250.234000,308.190000Z" opacity="0.1" fill="rgb(0,0,0)" stroke="none" stroke-width="1"/></g><path id="eyrb93BANlz54" d="M279.724000,291.850000L251.914000,305.230000C251.914000,305.230000,252.194000,281.380000,252.414000,264.230000C252.414000,263.640000,252.414000,263.060000,252.414000,262.490000C252.414000,261.920000,252.414000,261.550000,252.414000,261.090000C252.484000,255.220000,252.554000,250.490000,252.584000,248.340000C252.684000,241.440000,253.424000,240.040000,255.254000,241.160000C257.084000,242.280000,265.204000,249.350000,267.644000,252.500000C269.644000,255.080000,274.084000,270.740000,276.974000,281.500000C276.974000,281.600000,276.974000,281.680000,277.034000,281.770000C277.204000,282.400000,277.374000,283.010000,277.524000,283.590000C278.854000,288.430000,279.724000,291.850000,279.724000,291.850000Z" fill="rgb(255,255,255)" stroke="none" stroke-width="1"/><g id="eyrb93BANlz55" opacity="0.1"><path id="eyrb93BANlz56" d="M279.724000,291.849000L251.914000,305.229000C251.914000,305.229000,252.194000,281.379000,252.414000,264.229000C256.504000,273.369000,264.594000,285.849000,277.564000,283.589000C278.854000,288.429000,279.724000,291.849000,279.724000,291.849000Z" opacity="0.1" fill="rgb(0,0,0)" stroke="none" stroke-width="1"/></g><path id="eyrb93BANlz57" d="M232.484000,319.810000C229.624000,312.650000,241.774000,306.150000,255.574000,299.960000C269.374000,293.770000,405.394000,233.780000,425.114000,228.430000C444.834000,223.080000,467.794000,230.430000,471.674000,241.660000C477.494000,258.560000,452.964000,272.720000,364.854000,309.250000C353.304000,314.040000,301.664000,326.440000,272.624000,326.530000C241.564000,326.630000,233.894000,323.290000,232.484000,319.810000Z" fill="rgb(255,255,255)" stroke="none" stroke-width="1"/><path id="eyrb93BANlz58" d="M232.484000,319.810000C229.624000,312.650000,241.774000,306.150000,255.574000,299.960000C269.374000,293.770000,405.394000,233.780000,425.114000,228.430000C444.834000,223.080000,467.794000,230.430000,471.674000,241.660000C477.494000,258.560000,452.964000,272.720000,364.854000,309.250000C353.304000,314.040000,301.664000,326.440000,272.624000,326.530000C241.564000,326.630000,233.894000,323.290000,232.484000,319.810000Z" opacity="0.5" fill="rgb(255,255,255)" stroke="none" stroke-width="1"/><path id="eyrb93BANlz59" d="M364.844000,309.290000C353.294000,314.080000,301.654000,326.470000,272.614000,326.570000C241.564000,326.670000,233.894000,323.370000,232.484000,319.850000C230.984000,316.110000,233.594000,312.540000,238.404000,309.100000C238.372000,309.825000,238.498000,310.548000,238.774000,311.220000C240.064000,314.420000,247.024000,317.410000,275.194000,317.320000C301.544000,317.230000,339.444000,295.890000,349.914000,291.550000C429.864000,258.360000,461.114000,255.600000,455.804000,240.290000C453.504000,233.610000,443.804000,228.460000,432.374000,227.050000C450.094000,224.930000,468.254000,231.780000,471.664000,241.680000C477.484000,258.560000,452.954000,272.720000,364.844000,309.290000Z" opacity="0.1" fill="rgb(0,0,0)" stroke="none" stroke-width="1"/><path id="eyrb93BANlz60" d="M275.604000,296.210000L278.724000,294.850000L278.724000,299.450000L275.604000,300.800000L275.604000,296.210000Z" fill="rgb(69,90,100)" stroke="none" stroke-width="1"/><path id="eyrb93BANlz61" d="M281.304000,293.740000L284.644000,292.290000L284.644000,296.890000L281.304000,298.330000L281.304000,293.740000Z" fill="rgb(69,90,100)" stroke="none" stroke-width="1"/><path id="eyrb93BANlz62" d="M287.214000,291.180000L290.554000,289.729000L290.554000,294.329000L287.214000,295.770000L287.214000,291.180000Z" fill="rgb(69,90,100)" stroke="none" stroke-width="1"/><path id="eyrb93BANlz63" d="M293.134000,288.620000L296.464000,287.170000L296.464000,291.770000L293.134000,293.210000L293.134000,288.620000Z" fill="rgb(69,90,100)" stroke="none" stroke-width="1"/><path id="eyrb93BANlz64" d="M299.044000,286.060000L302.384000,284.610000L302.384000,289.210000L299.044000,290.650000L299.044000,286.060000Z" fill="rgb(69,90,100)" stroke="none" stroke-width="1"/><path id="eyrb93BANlz65" d="M304.964000,283.500000L308.294000,282.050000L308.294000,286.650000L304.964000,288.100000L304.964000,283.500000Z" fill="rgb(69,90,100)" stroke="none" stroke-width="1"/><path id="eyrb93BANlz66" d="M310.874000,280.940000L314.214000,279.490000L314.214000,284.090000L310.874000,285.540000L310.874000,280.940000Z" fill="rgb(69,90,100)" stroke="none" stroke-width="1"/><path id="eyrb93BANlz67" d="M316.784000,278.380000L320.124000,276.930000L320.124000,281.530000L316.784000,282.980000L316.784000,278.380000Z" fill="rgb(69,90,100)" stroke="none" stroke-width="1"/><path id="eyrb93BANlz68" d="M322.704000,275.820000L326.034000,274.370000L326.034000,278.970000L322.704000,280.420000L322.704000,275.820000Z" fill="rgb(69,90,100)" stroke="none" stroke-width="1"/><path id="eyrb93BANlz69" d="M328.614000,273.260000L331.954000,271.810000L331.954000,276.410000L328.614000,277.850000L328.614000,273.260000Z" fill="rgb(69,90,100)" stroke="none" stroke-width="1"/><path id="eyrb93BANlz70" d="M334.534000,270.700000L337.864000,269.250000L337.864000,273.850000L334.534000,275.290000L334.534000,270.700000Z" fill="rgb(69,90,100)" stroke="none" stroke-width="1"/><path id="eyrb93BANlz71" d="M340.444000,268.140000L343.784000,266.690000L343.784000,271.290000L340.444000,272.730000L340.444000,268.140000Z" fill="rgb(69,90,100)" stroke="none" stroke-width="1"/><path id="eyrb93BANlz72" d="M346.354000,265.580000L349.694000,264.140000L349.694000,268.730000L346.354000,270.170000L346.354000,265.580000Z" fill="rgb(69,90,100)" stroke="none" stroke-width="1"/><path id="eyrb93BANlz73" d="M352.274000,263.020000L355.604000,261.580000L355.604000,266.170000L352.274000,267.610000L352.274000,263.020000Z" fill="rgb(69,90,100)" stroke="none" stroke-width="1"/><path id="eyrb93BANlz74" d="M358.184000,260.460000L361.524000,259.020000L361.524000,263.610000L358.184000,265.050000L358.184000,260.460000Z" fill="rgb(69,90,100)" stroke="none" stroke-width="1"/><path id="eyrb93BANlz75" d="M364.094000,257.900000L367.434000,256.460000L367.434000,261.050000L364.094000,262.500000L364.094000,257.900000Z" fill="rgb(69,90,100)" stroke="none" stroke-width="1"/><path id="eyrb93BANlz76" d="M370.014000,255.340000L373.354000,253.900000L373.354000,258.490000L370.014000,259.940000L370.014000,255.340000Z" fill="rgb(69,90,100)" stroke="none" stroke-width="1"/><path id="eyrb93BANlz77" d="M375.924000,252.780000L379.264000,251.340000L379.264000,255.930000L375.924000,257.380000L375.924000,252.780000Z" fill="rgb(69,90,100)" stroke="none" stroke-width="1"/><path id="eyrb93BANlz78" d="M381.844000,250.220000L385.174000,248.780000L385.174000,253.370000L381.844000,254.820000L381.844000,250.220000Z" fill="rgb(69,90,100)" stroke="none" stroke-width="1"/><path id="eyrb93BANlz79" d="M387.754000,247.660000L391.094000,246.220000L391.094000,250.810000L387.754000,252.260000L387.754000,247.660000Z" fill="rgb(69,90,100)" stroke="none" stroke-width="1"/><path id="eyrb93BANlz80" d="M393.664000,245.100000L397.004000,243.660000L397.004000,248.250000L393.664000,249.700000L393.664000,245.100000Z" fill="rgb(69,90,100)" stroke="none" stroke-width="1"/><path id="eyrb93BANlz81" d="M402.924000,241.100000L402.924000,245.690000L399.584000,247.140000L399.584000,242.540000L402.924000,241.100000Z" fill="rgb(69,90,100)" stroke="none" stroke-width="1"/><path id="eyrb93BANlz82" d="M408.834000,238.540000L408.834000,243.130000L405.494000,244.580000L405.494000,239.980000L408.834000,238.540000Z" fill="rgb(69,90,100)" stroke="none" stroke-width="1"/><path id="eyrb93BANlz83" d="M414.744000,235.979000L414.744000,240.569000L411.414000,242.020000L411.414000,237.419000L414.744000,235.979000Z" fill="rgb(69,90,100)" stroke="none" stroke-width="1"/><path id="eyrb93BANlz84" d="M420.664000,233.420000L420.664000,238.010000L417.324000,239.460000L417.324000,234.860000L420.664000,233.420000Z" fill="rgb(69,90,100)" stroke="none" stroke-width="1"/><path id="eyrb93BANlz85" d="M436.114000,231.540000C437.949000,230.143000,440.064000,229.158000,442.314000,228.650000L442.314000,231.650000C440.334000,231.630000,438.294000,231.580000,436.114000,231.540000Z" fill="rgb(69,90,100)" stroke="none" stroke-width="1"/><path id="eyrb93BANlz86" d="M449.584000,227.920000L449.584000,232.140000C448.024000,232,446.474000,231.910000,444.904000,231.830000L444.904000,228.140000C446.453000,227.916000,448.020000,227.843000,449.584000,227.920000Z" fill="rgb(69,90,100)" stroke="none" stroke-width="1"/><path id="eyrb93BANlz87" d="M464.454000,233.880000C463.144000,233.880000,461.944000,233.620000,460.744000,233.480000C459.544000,233.340000,458.374000,233.120000,457.204000,233.010000C455.504000,232.750000,453.824000,232.570000,452.204000,232.410000L452.204000,228.190000C454.239000,228.467000,456.229000,229.008000,458.124000,229.800000C459.300000,230.279000,460.431000,230.862000,461.504000,231.540000C462.051000,231.867000,462.572000,232.234000,463.064000,232.640000C463.514000,233.040000,464.004000,233.440000,464.454000,233.880000Z" fill="rgb(69,90,100)" stroke="none" stroke-width="1"/><path id="eyrb93BANlz88" d="M358.184000,271.290000L318.984000,290.150000C318.984000,290.150000,256.684000,256.750000,211.984000,232.350000L211.884000,232.290000C188.024000,219.290000,169.804000,209.130000,170.104000,208.740000C170.854000,207.740000,182.854000,207.850000,187.604000,208.500000C188.063000,208.544000,188.517000,208.624000,188.964000,208.740000C190.964000,209.290000,261.474000,235.400000,310.834000,253.740000L358.184000,271.290000Z" fill="rgb(255,255,255)" stroke="none" stroke-width="1"/><g id="eyrb93BANlz89" opacity="0.1"><path id="eyrb93BANlz90" d="M358.184000,271.290000L318.984000,290.150000C318.984000,290.150000,256.684000,256.750000,211.984000,232.350000C215.484000,234.110000,295.634000,274.500000,306.104000,268.440000C310.054000,266.150000,311.104000,260.240000,310.814000,253.710000L358.184000,271.290000Z" opacity="0.1" fill="rgb(0,0,0)" stroke="none" stroke-width="1"/></g><path id="eyrb93BANlz91" d="M363.904000,268.740000L352.264000,274.340000C322.484000,261.860000,198.614000,212.890000,188.264000,208.780000L187.944000,208.650000L187.684000,208.570000L187.594000,208.570000C188.053000,208.614000,188.507000,208.694000,188.954000,208.810000C192.034000,209.630000,363.904000,268.740000,363.904000,268.740000Z" fill="rgb(255,255,255)" stroke="none" stroke-width="1"/><path id="eyrb93BANlz92" d="M363.904000,268.740000L352.264000,274.340000C322.484000,261.860000,198.614000,212.890000,188.264000,208.780000L187.944000,208.650000L187.684000,208.570000L187.594000,208.570000C188.053000,208.614000,188.507000,208.694000,188.954000,208.810000C192.034000,209.630000,363.904000,268.740000,363.904000,268.740000Z" opacity="0.5" fill="rgb(255,255,255)" stroke="none" stroke-width="1"/><path id="eyrb93BANlz93" d="M279.954000,269.650000C276.124000,271.510000,271.954000,272.970000,271.654000,269.120000C271.534000,267.540000,272.754000,265.850000,278.924000,262.890000C280.364000,262.190000,283.924000,260.640000,284.924000,263.890000C285.924000,267.140000,281.404000,268.950000,279.954000,269.650000Z" fill="rgb(255,255,255)" stroke="none" stroke-width="1"/><path id="eyrb93BANlz94" d="M279.954000,269.650000C276.124000,271.510000,271.954000,272.970000,271.654000,269.120000C271.534000,267.540000,272.754000,265.850000,278.924000,262.890000C280.364000,262.190000,283.924000,260.640000,284.924000,263.890000C285.924000,267.140000,281.404000,268.950000,279.954000,269.650000Z" opacity="0.1" fill="rgb(0,0,0)" stroke="none" stroke-width="1"/><path id="eyrb93BANlz95" d="M246.784000,252.890000C242.954000,254.750000,238.784000,256.210000,238.484000,252.360000C238.364000,250.780000,239.584000,249.100000,245.754000,246.130000C247.194000,245.430000,250.754000,243.890000,251.754000,247.130000C252.754000,250.370000,248.234000,252.190000,246.784000,252.890000Z" fill="rgb(255,255,255)" stroke="none" stroke-width="1"/><path id="eyrb93BANlz96" d="M246.784000,252.890000C242.954000,254.750000,238.784000,256.210000,238.484000,252.360000C238.364000,250.780000,239.584000,249.100000,245.754000,246.130000C247.194000,245.430000,250.754000,243.890000,251.754000,247.130000C252.754000,250.370000,248.234000,252.190000,246.784000,252.890000Z" opacity="0.1" fill="rgb(0,0,0)" stroke="none" stroke-width="1"/><path id="eyrb93BANlz97" d="M213.514000,235.930000C209.944000,237.670000,206.054000,239.030000,205.774000,235.440000C205.664000,233.970000,206.774000,232.440000,212.544000,229.640000C213.894000,228.990000,217.184000,227.550000,218.144000,230.530000C219.104000,233.510000,214.854000,235.290000,213.514000,235.930000Z" fill="rgb(255,255,255)" stroke="none" stroke-width="1"/><path id="eyrb93BANlz98" d="M213.514000,235.930000C209.944000,237.670000,206.054000,239.030000,205.774000,235.440000C205.664000,233.970000,206.774000,232.440000,212.544000,229.640000C213.894000,228.990000,217.184000,227.550000,218.144000,230.530000C219.104000,233.510000,214.854000,235.290000,213.514000,235.930000Z" opacity="0.1" fill="rgb(0,0,0)" stroke="none" stroke-width="1"/><path id="eyrb93BANlz99" d="M329.444000,265.850000C326.444000,271.220000,319.584000,273.150000,315.254000,274.850000C303.744000,279.450000,295.404000,282.040000,291.254000,271.580000C290.761000,270.372000,290.451000,269.099000,290.334000,267.800000C289.654000,259.920000,297.824000,255.980000,301.964000,253.800000C306.964000,251.170000,310.504000,249.460000,313.144000,248.350000C317.444000,246.540000,319.364000,246.350000,321.334000,246.240000C323.664000,246.160000,328.914000,246.750000,330.644000,256.390000C331.391000,259.585000,330.965000,262.942000,329.444000,265.850000Z" fill="rgb(255,255,255)" stroke="none" stroke-width="1"/><path id="eyrb93BANlz100" d="M321.384000,268.990000C325.913000,268.990000,329.584000,264.230000,329.584000,258.359000C329.584000,252.489000,325.913000,247.729000,321.384000,247.729000C316.855000,247.729000,313.184000,252.489000,313.184000,258.359000C313.184000,264.230000,316.855000,268.990000,321.384000,268.990000Z" fill="rgb(38,50,56)" stroke="none" stroke-width="1"/><path id="eyrb93BANlz101" d="M328.624000,258.360000C328.624000,263.550000,325.384000,267.750000,321.384000,267.750000C317.384000,267.750000,314.134000,263.550000,314.134000,258.360000C314.134000,253.170000,317.384000,248.970000,321.384000,248.970000C325.384000,248.970000,328.624000,253.170000,328.624000,258.360000Z" fill="rgb(69,90,100)" stroke="none" stroke-width="1"/><path id="eyrb93BANlz102" d="M204.724000,288.550000L203.564000,288.170000L204.724000,288.550000Z" fill="rgb(255,255,255)" stroke="none" stroke-width="1"/></g></g></g></svg>