<svg width="56" height="56" viewBox="0 0 56 56" fill="none" xmlns="http://www.w3.org/2000/svg">
<g clip-path="url(#clip0)">
<path d="M52.6184 15.9802L42.5115 5.854V46.4327H56.0375V24.2021C56.0375 21.1154 54.8066 18.1562 52.6184 15.9802Z" fill="white" fill-opacity="0.97"/>
<path d="M7.8999 39.0391L0.259236 19.2038C-0.507641 17.2127 0.484418 14.976 2.47667 14.2088L38.5406 0.317341C40.5317 -0.449536 42.7684 0.542524 43.5353 2.53478L51.1759 22.37C51.9428 24.3612 50.9508 26.5979 48.9585 27.3651L12.8957 41.2565C10.9034 42.0234 8.66789 41.0302 7.8999 39.0391Z" fill="#DEDEDE"/>
<path d="M46.2889 9.67969L3.04761 26.4408L5.92691 33.9151L49.17 17.1617L46.2889 9.67969Z" fill="#DEDEDE"/>
<path d="M0.000976562 25.1773V3.92183C0.000976562 1.78759 1.73144 0.0571289 3.86568 0.0571289H42.512C44.6462 0.0571289 46.3767 1.78759 46.3767 3.92183V25.1773C46.3767 27.3116 44.6462 29.042 42.512 29.042H3.86568C1.73144 29.042 0.000976562 27.3116 0.000976562 25.1773Z" fill="#5CB2CD"/>
<path d="M42.5115 0.0568848H38.4053L9.42041 29.0418H42.5115C44.6457 29.0418 46.3762 27.3113 46.3762 25.1771V3.92159C46.3762 1.78735 44.6457 0.0568848 42.5115 0.0568848Z" fill="#5CB2CD"/>
<path d="M3.86499 15.5151H7.72969V17.4475H3.86499V15.5151Z" fill="white"/>
<path d="M3.86499 21.3125H7.72969V23.2449H3.86499V21.3125Z" fill="white"/>
<path d="M21.2561 21.3125H25.1208V23.2449H21.2561V21.3125Z" fill="white"/>
<path d="M9.66211 15.5151H13.5264V17.4475H9.66211V15.5151Z" fill="white"/>
<path d="M15.4587 15.5151H19.3234V17.4475H15.4587V15.5151Z" fill="white"/>
<path d="M21.2561 15.5151H25.1208V17.4475H21.2561V15.5151Z" fill="white"/>
<path d="M39.613 3.92163H41.5454V6.82016H39.613V3.92163Z" fill="white"/>
<path d="M35.7483 3.92163H37.6806V6.82016H35.7483V3.92163Z" fill="white"/>
<path d="M31.8835 3.92163H33.8159V6.82016H31.8835V3.92163Z" fill="white"/>
<path d="M28.019 3.92163H29.951V6.82016H28.019V3.92163Z" fill="white"/>
<path d="M38.6467 46.4326H56.0375V56.094H38.6467V46.4326Z" fill="#66DCCE"/>
<path d="M35.811 17.5106C34.1722 15.8777 31.5203 15.8825 29.8875 17.5213C28.3086 19.1057 28.2539 21.6515 29.7629 23.3028L37.6805 31.9403C35.3007 36.1053 35.4024 41.2412 37.9441 45.3089L38.6467 46.4326H51.2066V32.9065L35.811 17.5106Z" fill="white" fill-opacity="0.97"/>
<path d="M41.5452 49.3311H43.4775V51.2634H41.5452V49.3311Z" fill="#66DCCE"/>
<path d="M3.86499 10.1051V5.46759C3.86499 4.61345 4.55681 3.92163 5.41094 3.92163H10.0484C10.9026 3.92163 11.594 4.61345 11.594 5.46759V10.1051C11.594 10.9592 10.9026 11.651 10.0484 11.651H5.41094C4.55681 11.651 3.86499 10.9592 3.86499 10.1051Z" fill="white"/>
<path d="M3.86499 6.82007H6.76352V8.75242H3.86499V6.82007Z" fill="white"/>
<path d="M8.69604 6.82007H11.5942V8.75242H8.69604V6.82007Z" fill="white"/>
<path d="M50.2405 32.9067C49.9846 32.9067 49.7384 32.805 49.5576 32.6235L45.6929 28.7588C45.322 28.3753 45.3327 27.7638 45.7173 27.3925C46.0922 27.0313 46.6853 27.0313 47.0591 27.3925L50.9238 31.2572C51.3006 31.6351 51.3006 32.2467 50.9238 32.6235C50.7419 32.805 50.4968 32.9067 50.2405 32.9067Z" fill="white"/>
</g>
<defs>
<clipPath id="clip0">
<rect width="56" height="56" fill="white"/>
</clipPath>
</defs>
</svg>
