<svg width="60" height="60" viewBox="0 0 60 60" fill="none" xmlns="http://www.w3.org/2000/svg">
<g clip-path="url(#clip0)">
<rect width="60" height="60" fill="white"/>
<rect width="60" height="60" fill="white"/>
<path d="M58.999 36.6644C58.3543 39.5924 57.272 42.4041 55.7947 44.9988C54.8991 46.5743 53.8581 48.0698 52.6825 49.4636C49.4079 53.349 45.175 52.0955 40.0436 53.9231C36.9289 55.0332 26.1183 59.7503 25.5014 59.6557C21.1676 58.9867 17.0373 57.3628 13.4197 54.9304C8.33085 51.5104 6.5189 46.5124 4.30472 40.2928C2.08932 34.0721 -0.19383 27.5762 1.5877 21.7093C4.22849 13.0076 10.8177 5.62943 20.0405 2.34511C22.4607 1.48343 24.9173 0.953819 27.3617 0.735673C37.6534 -0.19145 47.7269 4.36175 53.8471 12.621C55.5535 14.9225 53.4902 21.5223 54.501 24.3606C56.4376 29.7997 60.1552 31.4156 58.999 36.6644Z" fill="white"/>
<path d="M53.7241 36.6642C53.0793 39.5926 51.9966 42.4041 50.5195 44.9986C47.1249 50.9647 41.6572 55.7876 34.6841 58.2703C32.2656 59.1321 26.1191 59.7503 25.5016 59.655C21.167 58.9864 17.0374 57.3626 13.4197 54.9308C8.33093 51.5105 6.51898 46.5131 4.30467 40.2927C2.08903 34.0725 -0.193635 27.5759 1.5879 21.7088C4.22856 13.0069 10.8176 5.62935 20.0408 2.34516C22.4606 1.48336 24.9177 0.954108 27.3618 0.73584C35.7297 1.4859 43.5067 5.78351 48.5723 12.6203C50.278 14.922 51.678 17.51 52.6889 20.3485C54.6244 25.7867 54.88 31.415 53.7241 36.6642Z" fill="white"/>
<path d="M58.9991 36.6642L53.1898 38.7334L51.3595 39.3845C48.16 40.5239 44.6434 38.8541 43.5054 35.6573L42.7258 33.47L41.7483 33.818C39.4095 34.6516 36.8381 33.4314 36.0058 31.0925L33.6836 24.573C32.8514 22.2341 34.0715 19.6627 36.4104 18.8304L49.6165 14.1269L53.8474 12.6204C55.553 14.9221 56.9517 17.51 57.9626 20.3486C59.8995 25.7867 60.1551 31.415 58.9991 36.6642Z" fill="#66DCCE"/>
<path d="M53.7241 36.6643C53.5713 37.3617 53.3928 38.0514 53.1898 38.7334L51.3595 39.3846C48.16 40.5239 44.6434 38.8541 43.5054 35.6573L42.7258 33.47L41.7484 33.8181C39.4095 34.6516 36.8381 33.4315 36.0058 31.0926L33.6836 24.573C32.8514 22.2341 34.0715 19.6628 36.4104 18.8304L49.6165 14.127C50.856 16.0329 51.8925 18.1137 52.6888 20.3486C54.6245 25.7868 54.8801 31.4151 53.7241 36.6643Z" fill="#66DCCE"/>
<path d="M21.2032 52.1592L17.1316 53.6092L13.4198 54.9308C8.331 51.5105 4.25178 46.4872 2.03747 40.2669C-0.176839 34.0517 -0.193563 27.5861 1.58409 21.7228C1.58542 21.7177 1.58663 21.7138 1.58797 21.7087L5.35645 20.3665C7.69534 19.5329 10.2667 20.7544 11.099 23.0932L11.596 24.4855C12.3307 26.5482 11.4676 28.792 9.64763 29.8633L9.67466 29.9416C10.7073 32.8391 9.19425 36.0258 6.29799 37.0585L10.6803 35.4979C10.6881 35.4953 10.6957 35.4928 10.7035 35.4901L14.7531 34.0477C19.2536 32.4448 24.2024 34.7926 25.8054 39.2931L26.4515 41.1054C28.0542 45.6074 25.7037 50.5562 21.2032 52.1592Z" fill="#66DCCE"/>
<path d="M17.1316 53.6093L13.4198 54.9309C8.331 51.5106 4.25178 46.4873 2.03747 40.267C-0.176839 34.0517 -0.193563 27.5861 1.58409 21.7228C3.83948 21.0884 6.22976 22.3033 7.02733 24.5433L7.52313 25.9356C8.2578 27.9983 7.39467 30.2422 5.57472 31.3146L5.60295 31.3917C5.91297 32.3 6.8167 35.959 4.31492 37.7648L6.29787 37.0584L10.6802 35.4978C10.688 35.4953 10.6956 35.4927 10.7033 35.4901C15.1987 33.9026 20.1333 36.2504 21.7337 40.7433L22.3784 42.5568C23.9813 47.0575 21.6322 52.0063 17.1316 53.6093Z" fill="#66DCCE"/>
<path d="M34.8152 11.1395C34.8152 13.1316 33.5771 14.9991 31.5927 15.7056L27.2463 17.2532C27.2373 17.2571 27.2296 17.2609 27.2206 17.2635L23.5652 18.5646C21.0439 19.4624 18.2734 18.1459 17.3756 15.6246C17.1843 15.0877 17.093 14.538 17.093 13.9986C17.093 12.0065 18.3299 10.1403 20.3143 9.43384L23.9684 8.13272L28.3405 6.57479C30.8618 5.67699 33.6335 6.99351 34.5326 9.5148C34.7241 10.0516 34.8152 10.6001 34.8152 11.1395Z" fill="url(#paint0_linear)"/>
<path d="M30.4419 12.6975C30.4419 14.6806 29.2153 16.5404 27.2463 17.2533C27.2373 17.2571 27.2296 17.261 27.2206 17.2636L23.5652 18.5647C21.0439 19.4625 18.2734 18.146 17.3756 15.6247C17.1843 15.0878 17.093 14.5381 17.093 13.9986C17.093 12.0066 18.3299 10.1404 20.3143 9.43393L23.9684 8.13281C26.4897 7.23501 29.2613 8.55019 30.1591 11.0715C30.3507 11.6084 30.4419 12.1581 30.4419 12.6975Z" fill="#F5F5F5" fill-opacity="0.97"/>
<path d="M17.4251 46.8712C19.3935 46.8712 20.9891 45.2756 20.9891 43.3072C20.9891 41.3388 19.3935 39.7432 17.4251 39.7432C15.4568 39.7432 13.8611 41.3388 13.8611 43.3072C13.8611 45.2756 15.4568 46.8712 17.4251 46.8712Z" fill="#FE7A7A"/>
<path d="M43.0943 28.5494C45.0067 28.5494 46.557 26.9991 46.557 25.0867C46.557 23.1743 45.0067 21.624 43.0943 21.624C41.1819 21.624 39.6316 23.1743 39.6316 25.0867C39.6316 26.9991 41.1819 28.5494 43.0943 28.5494Z" fill="#FE7A7A"/>
<path d="M43.0944 9.9356L54.0067 6.11888C54.6658 5.88837 54.6658 4.95616 54.0067 4.72553L43.0944 0.908936V9.9356Z" fill="#FE7A7A"/>
<path d="M52.6824 49.4636C49.4078 53.349 45.0909 56.4431 39.9596 58.2707C36.845 59.3808 33.6685 59.9371 30.5357 59.9952C29.4716 60.0146 28.4148 59.9759 27.3653 59.8825C27.1908 59.8668 27.0175 59.8498 26.8442 59.8304C26.3945 59.7832 25.9461 59.7238 25.5013 59.6559C26.1073 56.8891 28.0827 54.4895 30.949 53.469L37.3528 51.1882L45.0158 48.4577C46.1926 48.0384 47.3996 47.8954 48.5679 47.9935C50.0501 48.1172 51.4693 48.6298 52.6824 49.4636Z" fill="url(#paint1_linear)"/>
<path d="M48.5679 47.9935C45.183 52.5674 40.448 56.2177 34.6841 58.2707C32.2651 59.1323 29.8085 59.662 27.3653 59.8825C27.1908 59.8668 27.0175 59.8498 26.8442 59.8304C26.3945 59.7831 25.9473 59.7238 25.5013 59.6559C26.1073 56.8891 28.0827 54.4895 30.9489 53.469L37.3528 51.1882L45.0158 48.4577C46.1926 48.0384 47.3996 47.8954 48.5679 47.9935Z" fill="#F5F5F5" fill-opacity="0.97"/>
<path d="M43.0942 25.9959C42.5921 25.9959 42.1853 25.5891 42.1853 25.087V0.908944C42.1853 0.406843 42.5921 0 43.0942 0C43.5964 0 44.0032 0.406843 44.0032 0.908944V25.087C44.0032 25.5891 43.5964 25.9959 43.0942 25.9959Z" fill="#FE7A7A"/>
<path d="M17.4261 44.2158C17.3724 44.2158 17.3178 44.211 17.2631 44.201C16.7696 44.1116 16.4418 43.6397 16.5306 43.146C16.5371 43.1103 16.6938 42.2528 17.1279 40.9207C17.2834 40.4434 17.7963 40.1823 18.2738 40.338C18.751 40.4935 19.0118 41.0065 18.8563 41.4838C18.4645 42.6866 18.321 43.4616 18.3196 43.4694C18.2396 43.9081 17.8568 44.2158 17.4261 44.2158Z" fill="#DEDEDE"/>
<path d="M19.6664 38.1364C19.5246 38.1364 19.3807 38.1031 19.2463 38.0329C18.8014 37.8005 18.6291 37.2515 18.8615 36.8065C19.5632 35.4632 20.3722 34.1942 21.2661 33.0348C21.5727 32.6373 22.1434 32.5635 22.5409 32.87C22.9385 33.1765 23.0123 33.7472 22.7058 34.1448C21.8767 35.2202 21.1254 36.399 20.4728 37.6483C20.3105 37.9586 19.994 38.1364 19.6664 38.1364ZM24.9334 31.3518C24.6805 31.3518 24.4289 31.247 24.2492 31.0417C23.9184 30.6641 23.9565 30.0899 24.3342 29.759C25.4652 28.7686 26.6995 27.894 28.003 27.1595C28.4405 26.9134 28.9947 27.0678 29.2411 27.5053C29.4875 27.9426 29.3327 28.4969 28.8954 28.7434C27.7006 29.4168 26.5689 30.2186 25.5319 31.1268C25.3594 31.2778 25.1459 31.3518 24.9334 31.3518ZM32.397 27.1345C32.0138 27.1345 31.6574 26.8901 31.5327 26.506C31.3778 26.0285 31.6391 25.5157 32.1165 25.3607C33.4958 24.913 34.9622 24.5794 36.4752 24.3691C36.9734 24.3001 37.4315 24.647 37.5006 25.1442C37.5697 25.6415 37.2226 26.1006 36.7254 26.1696C35.3178 26.3651 33.9559 26.6747 32.6781 27.0897C32.5848 27.12 32.4901 27.1345 32.397 27.1345Z" fill="#DEDEDE"/>
<path d="M38.8004 45.6662C38.4268 45.6662 38.0767 45.4342 37.9442 45.0622C37.7757 44.5893 38.0225 44.0694 38.4953 43.9009L42.5617 42.4521C43.034 42.2831 43.5544 42.5303 43.723 43.0032C43.8915 43.476 43.6447 43.996 43.1719 44.1644L39.1055 45.6133C39.0047 45.6491 38.9017 45.6662 38.8004 45.6662Z" fill="#F5F5F5" fill-opacity="0.97"/>
<path d="M32.6284 44.2151C32.2548 44.2151 31.9047 43.983 31.7722 43.611C31.6037 43.1381 31.8505 42.6182 32.3233 42.4498L36.3897 41.0009C36.8621 40.832 37.3824 41.0791 37.5509 41.552C37.7195 42.0249 37.4727 42.5448 36.9999 42.7132L32.9335 44.1621C32.8326 44.198 32.7297 44.2151 32.6284 44.2151Z" fill="#F5F5F5" fill-opacity="0.97"/>
</g>
<defs>
<linearGradient id="paint0_linear" x1="22.0916" y1="7.58031" x2="26.2998" y2="19.0115" gradientUnits="userSpaceOnUse">
<stop stop-color="#44C5D7"/>
<stop offset="1" stop-color="#42A4DB" stop-opacity="0.88"/>
</linearGradient>
<linearGradient id="paint1_linear" x1="33.1678" y1="49.1984" x2="35.8877" y2="61.0175" gradientUnits="userSpaceOnUse">
<stop stop-color="#44C5D7"/>
<stop offset="1" stop-color="#42A4DB" stop-opacity="0.88"/>
</linearGradient>
<clipPath id="clip0">
<rect width="60" height="60" fill="white"/>
</clipPath>
</defs>
</svg>
