<svg width="73" height="73" viewBox="0 0 73 73" fill="none" xmlns="http://www.w3.org/2000/svg">
<path d="M67.2997 40.5522C67.0404 40.1576 66.706 39.818 66.3154 39.5527C65.9249 39.2874 65.4859 39.1017 65.0235 39.0061C64.5612 38.9105 64.0845 38.9069 63.6208 38.9956C63.1571 39.0842 62.7153 39.2634 62.3209 39.5228L62.02 39.7195L65.968 45.7292L66.2689 45.5325C66.6639 45.2734 67.004 44.939 67.2696 44.5484C67.5353 44.1578 67.7213 43.7187 67.817 43.2561C67.9128 42.7935 67.9164 42.3166 67.8276 41.8526C67.7388 41.3887 67.5594 40.9468 67.2997 40.5522Z" fill="#F5F5F5" fill-opacity="0.97"/>
<path d="M47.8835 8.26949H9.38736C8.82964 8.26398 8.27637 8.36927 7.75965 8.57925C7.24294 8.78923 6.77306 9.09972 6.37728 9.49272C5.9815 9.88571 5.6677 10.3534 5.45407 10.8686C5.24045 11.3838 5.13125 11.9363 5.13283 12.4941V63.9648C5.13283 66.3259 7.02484 68.2949 9.38736 68.2949H47.8835C49.0256 68.2834 50.1172 67.8226 50.922 67.0122C51.7268 66.2017 52.1801 65.1069 52.1836 63.9648V12.4941C52.1836 10.1316 50.2445 8.26949 47.8835 8.26949ZM14.841 16.6517C14.3726 16.6517 13.9147 16.5128 13.5253 16.2525C13.1358 15.9923 12.8323 15.6225 12.653 15.1897C12.4738 14.757 12.4269 14.2808 12.5183 13.8214C12.6096 13.362 12.8352 12.9401 13.1664 12.6089C13.4976 12.2777 13.9196 12.0521 14.379 11.9607C14.8383 11.8693 15.3145 11.9162 15.7473 12.0955C16.18 12.2747 16.5499 12.5783 16.8101 12.9677C17.0703 13.3572 17.2092 13.815 17.2092 14.2834C17.2092 14.5944 17.148 14.9024 17.029 15.1898C16.91 15.4771 16.7356 15.7382 16.5156 15.9581C16.2957 16.178 16.0346 16.3525 15.7473 16.4715C15.46 16.5905 15.152 16.6517 14.841 16.6517ZM23.755 16.6517C23.2866 16.6517 22.8287 16.5128 22.4392 16.2525C22.0498 15.9923 21.7463 15.6225 21.567 15.1897C21.3878 14.757 21.3409 14.2808 21.4322 13.8214C21.5236 13.362 21.7492 12.9401 22.0804 12.6089C22.4116 12.2777 22.8336 12.0521 23.2929 11.9607C23.7523 11.8693 24.2285 11.9162 24.6612 12.0955C25.094 12.2747 25.4638 12.5783 25.7241 12.9677C25.9843 13.3572 26.1232 13.815 26.1232 14.2834C26.1232 14.5944 26.062 14.9024 25.943 15.1898C25.824 15.4771 25.6495 15.7382 25.4296 15.9581C25.2097 16.178 24.9486 16.3525 24.6613 16.4715C24.3739 16.5905 24.066 16.6517 23.755 16.6517ZM32.6704 16.6517C32.202 16.6517 31.7441 16.5128 31.3547 16.2525C30.9652 15.9923 30.6617 15.6225 30.4824 15.1897C30.3032 14.757 30.2563 14.2808 30.3477 13.8214C30.439 13.362 30.6646 12.9401 30.9958 12.6089C31.327 12.2777 31.749 12.0521 32.2084 11.9607C32.6677 11.8693 33.1439 11.9162 33.5766 12.0955C34.0094 12.2747 34.3793 12.5783 34.6395 12.9677C34.8997 13.3572 35.0386 13.815 35.0386 14.2834C35.0388 14.5945 34.9776 14.9025 34.8587 15.1899C34.7398 15.4773 34.5653 15.7385 34.3454 15.9584C34.1254 16.1784 33.8643 16.3528 33.5769 16.4718C33.2895 16.5907 32.9814 16.6518 32.6704 16.6517ZM41.5844 16.6517C41.116 16.6517 40.6581 16.5128 40.2686 16.2525C39.8792 15.9923 39.5756 15.6225 39.3964 15.1897C39.2172 14.757 39.1703 14.2808 39.2616 13.8214C39.353 13.362 39.5786 12.9401 39.9098 12.6089C40.241 12.2777 40.6629 12.0521 41.1223 11.9607C41.5817 11.8693 42.0579 11.9162 42.4906 12.0955C42.9234 12.2747 43.2932 12.5783 43.5535 12.9677C43.8137 13.3572 43.9526 13.815 43.9526 14.2834C43.9526 14.5944 43.8914 14.9024 43.7724 15.1898C43.6534 15.4771 43.4789 15.7382 43.259 15.9581C43.0391 16.178 42.778 16.3525 42.4907 16.4715C42.2033 16.5905 41.8954 16.6517 41.5844 16.6517Z" fill="#F5F5F5" fill-opacity="0.97"/>
<path d="M52.1609 54.7972L42.9874 60.8211L41.0127 57.817L63.9949 42.7251L65.9681 45.7292L52.1609 54.7972Z" fill="#FE7A7A"/>
<path d="M63.9947 42.7248L41.0125 57.8167L39.0378 54.8111L52.1607 46.1937L62.02 39.7192L63.9947 42.7248Z" fill="#FE7A7A"/>
<path d="M39.0378 54.8115L38.9465 54.9826L35.7571 61.0108L42.9872 60.8212L39.0378 54.8115Z" fill="url(#paint0_linear)"/>
<path d="M15.427 23.2261C16.4062 23.2259 17.3635 23.5162 18.1778 24.0601C18.992 24.604 19.6267 25.3771 20.0016 26.2818C20.3764 27.1864 20.4746 28.1819 20.2837 29.1423C20.0928 30.1027 19.6214 30.985 18.9291 31.6775C18.2368 32.37 17.3547 32.8417 16.3943 33.0329C15.4339 33.224 14.4384 33.1261 13.5337 32.7515C12.629 32.3769 11.8556 31.7425 11.3115 30.9283C10.7673 30.1142 10.4768 29.157 10.4767 28.1778C10.4766 26.8648 10.9981 25.6055 11.9265 24.6769C12.8548 23.7483 14.1139 23.2264 15.427 23.2261Z" fill="#F5F5F5" fill-opacity="0.97"/>
<path d="M15.427 37.4839C16.4062 37.4837 17.3635 37.774 18.1778 38.3179C18.992 38.8618 19.6267 39.635 20.0016 40.5396C20.3764 41.4442 20.4746 42.4397 20.2837 43.4001C20.0928 44.3605 19.6214 45.2428 18.9291 45.9353C18.2368 46.6278 17.3547 47.0995 16.3943 47.2907C15.4339 47.4819 14.4384 47.3839 13.5337 47.0093C12.629 46.6347 11.8556 46.0003 11.3115 45.1862C10.7673 44.372 10.4768 43.4149 10.4767 42.4356C10.4766 41.1226 10.9981 39.8633 11.9265 38.9347C12.8548 38.0061 14.1139 37.4842 15.427 37.4839Z" fill="#F5F5F5" fill-opacity="0.97"/>
<path d="M15.427 51.7417C16.4062 51.7416 17.3635 52.0318 18.1778 52.5757C18.992 53.1196 19.6267 53.8928 20.0016 54.7974C20.3764 55.702 20.4746 56.6975 20.2837 57.6579C20.0928 58.6184 19.6214 59.5006 18.9291 60.1931C18.2368 60.8856 17.3547 61.3573 16.3943 61.5485C15.4339 61.7397 14.4384 61.6418 13.5337 61.2672C12.629 60.8926 11.8556 60.2581 11.3115 59.444C10.7673 58.6299 10.4768 57.6727 10.4767 56.6934C10.4766 55.3804 10.9981 54.1211 11.9265 53.1925C12.8548 52.2639 14.1139 51.742 15.427 51.7417Z" fill="#F5F5F5" fill-opacity="0.97"/>
<path d="M9.41005 63.9648V12.4941C9.40847 11.9363 9.51767 11.3838 9.73129 10.8686C9.94491 10.3534 10.2587 9.88571 10.6545 9.49272C11.0503 9.09972 11.5202 8.78923 12.0369 8.57925C12.5536 8.36927 13.1069 8.26398 13.6646 8.26949H9.38724C8.82951 8.26398 8.27624 8.36927 7.75953 8.57925C7.24281 8.78923 6.77294 9.09972 6.37716 9.49272C5.98138 9.88571 5.66757 10.3534 5.45395 10.8686C5.24032 11.3838 5.13113 11.9363 5.13271 12.4941V63.9648C5.13271 66.3259 7.02472 68.2949 9.38724 68.2949H13.6646C11.3021 68.2949 9.41005 66.3259 9.41005 63.9648Z" fill="#DEDEDE"/>
<path d="M25.4075 27.375H46.7942C47.0211 27.375 47.2387 27.2849 47.3991 27.1244C47.5595 26.964 47.6497 26.7464 47.6497 26.5195C47.6497 26.2926 47.5595 26.0751 47.3991 25.9146C47.2387 25.7542 47.0211 25.6641 46.7942 25.6641H25.4075C25.1806 25.6641 24.963 25.7542 24.8026 25.9146C24.6421 26.0751 24.552 26.2926 24.552 26.5195C24.552 26.7464 24.6421 26.964 24.8026 27.1244C24.963 27.2849 25.1806 27.375 25.4075 27.375Z" fill="#333333"/>
<path d="M16.7693 26.3613L14.8686 28.1785L14.0976 27.4076C14.0186 27.3264 13.9242 27.2617 13.82 27.2173C13.7157 27.1728 13.6037 27.1496 13.4904 27.1488C13.3771 27.148 13.2647 27.1698 13.1599 27.2128C13.055 27.2558 12.9598 27.3193 12.8797 27.3994C12.7996 27.4795 12.7361 27.5748 12.6931 27.6796C12.6501 27.7845 12.6284 27.8968 12.6292 28.0101C12.6299 28.1234 12.6532 28.2355 12.6977 28.3397C12.7421 28.4439 12.8068 28.5383 12.888 28.6174L14.2503 29.9798C14.4084 30.1379 14.6221 30.2278 14.8457 30.2303C15.0692 30.2328 15.2848 30.1477 15.4464 29.9932L17.9517 27.5979C18.0337 27.5205 18.0995 27.4276 18.1455 27.3246C18.1914 27.2216 18.2165 27.1105 18.2194 26.9978C18.2223 26.8851 18.2028 26.7729 18.1621 26.6677C18.1215 26.5625 18.0604 26.4664 17.9825 26.3849C17.9046 26.3034 17.8113 26.2381 17.708 26.1927C17.6047 26.1474 17.4935 26.123 17.3808 26.1208C17.268 26.1186 17.156 26.1387 17.051 26.18C16.9461 26.2213 16.8503 26.2829 16.7693 26.3613Z" fill="#333333"/>
<path d="M15.4269 22.3706C14.2786 22.3706 13.156 22.7111 12.2012 23.3491C11.2464 23.9871 10.5022 24.8939 10.0628 25.9548C9.62336 27.0157 9.50838 28.1832 9.73242 29.3094C9.95646 30.4357 10.5095 31.4702 11.3215 32.2822C12.1335 33.0942 13.168 33.6472 14.2943 33.8712C15.4206 34.0952 16.588 33.9802 17.6489 33.5407C18.7098 33.1013 19.6166 32.3571 20.2546 31.4022C20.8925 30.4474 21.233 29.3249 21.233 28.1765C21.2312 26.6372 20.619 25.1614 19.5305 24.073C18.442 22.9845 16.9662 22.3723 15.4269 22.3706ZM15.4269 32.2716C14.617 32.2716 13.8252 32.0315 13.1518 31.5815C12.4783 31.1315 11.9535 30.4919 11.6435 29.7437C11.3336 28.9954 11.2525 28.172 11.4105 27.3776C11.5685 26.5832 11.9585 25.8535 12.5312 25.2808C13.1039 24.7081 13.8336 24.3181 14.628 24.1601C15.4224 24.0021 16.2458 24.0832 16.9941 24.3931C17.7423 24.7031 18.3819 25.228 18.8319 25.9014C19.2819 26.5748 19.522 27.3666 19.522 28.1765C19.521 29.2623 19.0892 30.3034 18.3215 31.0712C17.5537 31.8391 16.5127 32.271 15.4269 32.2722V32.2716Z" fill="#333333"/>
<path d="M25.4075 41.6328H46.7942C47.0211 41.6328 47.2387 41.5427 47.3991 41.3823C47.5595 41.2218 47.6497 41.0042 47.6497 40.7773C47.6497 40.5505 47.5595 40.3329 47.3991 40.1724C47.2387 40.012 47.0211 39.9219 46.7942 39.9219H25.4075C25.1806 39.9219 24.963 40.012 24.8026 40.1724C24.6421 40.3329 24.552 40.5505 24.552 40.7773C24.552 41.0042 24.6421 41.2218 24.8026 41.3823C24.963 41.5427 25.1806 41.6328 25.4075 41.6328Z" fill="#333333"/>
<path d="M16.7693 40.6192L14.8686 42.4363L14.0976 41.6654C14.0186 41.5842 13.9242 41.5195 13.82 41.4751C13.7157 41.4307 13.6037 41.4074 13.4904 41.4066C13.3771 41.4059 13.2647 41.4276 13.1599 41.4706C13.055 41.5137 12.9598 41.5771 12.8797 41.6572C12.7996 41.7373 12.7361 41.8326 12.6931 41.9374C12.6501 42.0423 12.6284 42.1546 12.6292 42.2679C12.6299 42.3813 12.6532 42.4933 12.6977 42.5975C12.7421 42.7018 12.8068 42.7961 12.888 42.8752L14.2503 44.2377C14.4084 44.3957 14.6221 44.4857 14.8457 44.4882C15.0692 44.4907 15.2848 44.4056 15.4464 44.2511L17.9517 41.8557C18.0337 41.7783 18.0995 41.6854 18.1455 41.5824C18.1914 41.4794 18.2165 41.3684 18.2194 41.2556C18.2223 41.1429 18.2028 41.0307 18.1621 40.9255C18.1215 40.8203 18.0604 40.7242 17.9825 40.6427C17.9046 40.5612 17.8113 40.4959 17.708 40.4505C17.6047 40.4052 17.4935 40.3808 17.3808 40.3786C17.268 40.3764 17.156 40.3965 17.051 40.4378C16.9461 40.4791 16.8503 40.5407 16.7693 40.6192Z" fill="#333333"/>
<path d="M15.4269 36.6284C14.2786 36.6284 13.156 36.9689 12.2012 37.6069C11.2464 38.2449 10.5022 39.1517 10.0628 40.2126C9.62336 41.2736 9.50838 42.441 9.73242 43.5673C9.95646 44.6935 10.5095 45.7281 11.3215 46.5401C12.1335 47.352 13.168 47.905 14.2943 48.129C15.4206 48.353 16.588 48.238 17.6489 47.7986C18.7098 47.3591 19.6166 46.6149 20.2546 45.6601C20.8925 44.7053 21.233 43.5827 21.233 42.4344C21.2312 40.895 20.619 39.4193 19.5305 38.3308C18.442 37.2424 16.9662 36.6301 15.4269 36.6284ZM15.4269 46.5295C14.617 46.5295 13.8252 46.2893 13.1518 45.8393C12.4783 45.3894 11.9535 44.7498 11.6435 44.0015C11.3336 43.2532 11.2525 42.4298 11.4105 41.6354C11.5685 40.8411 11.9585 40.1114 12.5312 39.5387C13.1039 38.9659 13.8336 38.5759 14.628 38.4179C15.4224 38.2599 16.2458 38.341 16.9941 38.6509C17.7423 38.9609 18.3819 39.4858 18.8319 40.1592C19.2819 40.8327 19.522 41.6244 19.522 42.4344C19.521 43.5202 19.0892 44.5612 18.3215 45.3291C17.5537 46.0969 16.5127 46.5288 15.4269 46.5301V46.5295Z" fill="#333333"/>
<path d="M16.7693 54.877L14.8686 56.6941L14.0976 55.9232C14.0186 55.842 13.9242 55.7773 13.82 55.7329C13.7157 55.6885 13.6037 55.6652 13.4904 55.6644C13.3771 55.6637 13.2647 55.6854 13.1599 55.7285C13.055 55.7715 12.9598 55.8349 12.8797 55.915C12.7996 55.9951 12.7361 56.0904 12.6931 56.1952C12.6501 56.3001 12.6284 56.4124 12.6292 56.5257C12.6299 56.6391 12.6532 56.7511 12.6977 56.8553C12.7421 56.9596 12.8068 57.054 12.888 57.133L14.2503 58.4955C14.4084 58.6535 14.6221 58.7435 14.8457 58.746C15.0692 58.7485 15.2848 58.6634 15.4464 58.5089L17.9517 56.1136C18.0337 56.0361 18.0995 55.9432 18.1455 55.8402C18.1914 55.7372 18.2165 55.6262 18.2194 55.5134C18.2223 55.4007 18.2028 55.2885 18.1621 55.1833C18.1215 55.0781 18.0604 54.982 17.9825 54.9005C17.9046 54.819 17.8113 54.7537 17.708 54.7084C17.6047 54.663 17.4935 54.6386 17.3808 54.6364C17.268 54.6342 17.156 54.6543 17.051 54.6956C16.9461 54.7369 16.8503 54.7985 16.7693 54.877Z" fill="#333333"/>
<path d="M15.4269 50.8862C14.2786 50.8862 13.156 51.2268 12.2012 51.8647C11.2464 52.5027 10.5022 53.4095 10.0628 54.4705C9.62336 55.5314 9.50838 56.6988 9.73242 57.8251C9.95646 58.9513 10.5095 59.9859 11.3215 60.7979C12.1335 61.6099 13.168 62.1628 14.2943 62.3868C15.4206 62.6108 16.588 62.4958 17.6489 62.0564C18.7098 61.6169 19.6166 60.8727 20.2546 59.9179C20.8925 58.9631 21.233 57.8405 21.233 56.6922C21.2312 55.1528 20.619 53.6771 19.5305 52.5886C18.442 51.5002 16.9662 50.8879 15.4269 50.8862ZM15.4269 60.7873C14.617 60.7873 13.8252 60.5471 13.1518 60.0971C12.4783 59.6472 11.9535 59.0076 11.6435 58.2593C11.3336 57.511 11.2525 56.6876 11.4105 55.8932C11.5685 55.0989 11.9585 54.3692 12.5312 53.7965C13.1039 53.2238 13.8336 52.8337 14.628 52.6757C15.4224 52.5177 16.2458 52.5988 16.9941 52.9088C17.7423 53.2187 18.3819 53.7436 18.8319 54.417C19.2819 55.0905 19.522 55.8822 19.522 56.6922C19.521 57.778 19.0892 58.819 18.3215 59.5869C17.5537 60.3547 16.5127 60.7867 15.4269 60.7879V60.7873Z" fill="#333333"/>
<path d="M25.4075 30.2266H36.8137C37.0406 30.2266 37.2582 30.1364 37.4186 29.976C37.5791 29.8156 37.6692 29.598 37.6692 29.3711C37.6692 29.1442 37.5791 28.9266 37.4186 28.7662C37.2582 28.6058 37.0406 28.5156 36.8137 28.5156H25.4075C25.1806 28.5156 24.963 28.6058 24.8026 28.7662C24.6421 28.9266 24.552 29.1442 24.552 29.3711C24.552 29.598 24.6421 29.8156 24.8026 29.976C24.963 30.1364 25.1806 30.2266 25.4075 30.2266Z" fill="#333333"/>
<path d="M25.4075 44.4844H36.8137C37.0406 44.4844 37.2582 44.3942 37.4186 44.2338C37.5791 44.0734 37.6692 43.8558 37.6692 43.6289C37.6692 43.402 37.5791 43.1844 37.4186 43.024C37.2582 42.8636 37.0406 42.7734 36.8137 42.7734H25.4075C25.1806 42.7734 24.963 42.8636 24.8026 43.024C24.6421 43.1844 24.552 43.402 24.552 43.6289C24.552 43.8558 24.6421 44.0734 24.8026 44.2338C24.963 44.3942 25.1806 44.4844 25.4075 44.4844Z" fill="#333333"/>
<path d="M8.41211 13.4165C8.18522 13.4165 7.96763 13.5066 7.8072 13.6671C7.64677 13.8275 7.55664 14.0451 7.55664 14.272V15.1702C7.55664 15.3971 7.64677 15.6147 7.8072 15.7751C7.96763 15.9356 8.18522 16.0257 8.41211 16.0257C8.63899 16.0257 8.85659 15.9356 9.01702 15.7751C9.17745 15.6147 9.26758 15.3971 9.26758 15.1702V14.272C9.26758 14.0451 9.17745 13.8275 9.01702 13.6671C8.85659 13.5066 8.63899 13.4165 8.41211 13.4165Z" fill="#333333"/>
<path d="M8.41211 17.0225C8.18522 17.0225 7.96763 17.1126 7.8072 17.273C7.64677 17.4335 7.55664 17.651 7.55664 17.8779V26.1475C7.55664 26.3744 7.64677 26.5919 7.8072 26.7524C7.96763 26.9128 8.18522 27.0029 8.41211 27.0029C8.63899 27.0029 8.85659 26.9128 9.01702 26.7524C9.17745 26.5919 9.26758 26.3744 9.26758 26.1475V17.8779C9.26758 17.651 9.17745 17.4335 9.01702 17.273C8.85659 17.1126 8.63899 17.0225 8.41211 17.0225Z" fill="#333333"/>
<path d="M65.1969 38.1682C64.6245 38.0481 64.0341 38.0427 63.4597 38.1524C62.8852 38.262 62.3383 38.4845 61.8504 38.8069L53.0391 44.5936V12.4934C53.0391 9.66323 50.7132 7.41406 47.8829 7.41406H42.4883V4.75854C42.4883 4.53166 42.3982 4.31407 42.2377 4.15364C42.0773 3.99321 41.8597 3.90308 41.6328 3.90308C41.4059 3.90308 41.1883 3.99321 41.0279 4.15364C40.8675 4.31407 40.7774 4.53166 40.7774 4.75854V7.41406H33.5059V4.75854C33.5059 4.53166 33.4157 4.31407 33.2553 4.15364C33.0949 3.99321 32.8773 3.90308 32.6504 3.90308C32.4235 3.90308 32.2059 3.99321 32.0455 4.15364C31.8851 4.31407 31.7949 4.53166 31.7949 4.75854V7.41406H24.666V4.75854C24.666 4.53166 24.5759 4.31407 24.4155 4.15364C24.255 3.99321 24.0374 3.90308 23.8106 3.90308C23.5837 3.90308 23.3661 3.99321 23.2056 4.15364C23.0452 4.31407 22.9551 4.53166 22.9551 4.75854V7.41406H15.6836V4.75854C15.6836 4.53166 15.5935 4.31407 15.433 4.15364C15.2726 3.99321 15.055 3.90308 14.8281 3.90308C14.6012 3.90308 14.3837 3.99321 14.2232 4.15364C14.0628 4.31407 13.9727 4.53166 13.9727 4.75854V7.41406H9.38678C8.717 7.40928 8.0529 7.53718 7.4328 7.79037C6.8127 8.04357 6.24888 8.41705 5.77386 8.88927C5.29885 9.36149 4.92204 9.92309 4.66519 10.5417C4.40834 11.1603 4.27652 11.8236 4.27735 12.4934V63.9641C4.27735 66.7944 6.55646 69.1504 9.38678 69.1504H47.8829C50.7132 69.1504 53.0391 66.7944 53.0391 63.9641V55.2433L66.7388 46.2466C67.4746 45.7633 68.0505 45.0726 68.3937 44.2619C68.7369 43.4512 68.832 42.5569 68.667 41.6922C68.5019 40.8275 68.0841 40.0311 67.4664 39.4038C66.8488 38.7766 66.0589 38.3465 65.1969 38.1682ZM41.5845 12.7713C41.8837 12.7713 42.1762 12.86 42.4249 13.0262C42.6737 13.1925 42.8676 13.4287 42.9821 13.7051C43.0966 13.9816 43.1265 14.2857 43.0682 14.5792C43.0098 14.8726 42.8657 15.1422 42.6542 15.3537C42.4426 15.5653 42.1731 15.7094 41.8796 15.7677C41.5862 15.8261 41.282 15.7961 41.0056 15.6816C40.7292 15.5672 40.4929 15.3733 40.3267 15.1245C40.1605 14.8757 40.0717 14.5832 40.0717 14.284C40.0721 13.883 40.2317 13.4984 40.5153 13.2148C40.7989 12.9312 41.1834 12.7717 41.5845 12.7713ZM32.6701 12.7713C32.9693 12.7713 33.2617 12.8601 33.5105 13.0263C33.7592 13.1925 33.9531 13.4288 34.0676 13.7052C34.1821 13.9817 34.212 14.2858 34.1536 14.5793C34.0952 14.8727 33.9511 15.1422 33.7396 15.3538C33.528 15.5653 33.2584 15.7094 32.965 15.7677C32.6716 15.8261 32.3674 15.7961 32.091 15.6816C31.8146 15.5671 31.5783 15.3732 31.4121 15.1245C31.2459 14.8757 31.1572 14.5832 31.1572 14.284C31.1576 13.883 31.3172 13.4984 31.6008 13.2148C31.8844 12.9312 32.269 12.7717 32.6701 12.7713ZM23.7554 12.7713C24.0546 12.7714 24.347 12.8602 24.5957 13.0264C24.8444 13.1927 25.0382 13.429 25.1527 13.7054C25.2671 13.9819 25.297 14.286 25.2386 14.5794C25.1802 14.8728 25.0361 15.1424 24.8245 15.3539C24.6129 15.5654 24.3433 15.7094 24.0499 15.7678C23.7565 15.8261 23.4523 15.7961 23.1759 15.6816C22.8995 15.5671 22.6633 15.3732 22.4971 15.1244C22.3309 14.8757 22.2422 14.5832 22.2422 14.284C22.2426 13.8829 22.4022 13.4983 22.6859 13.2147C22.9696 12.9311 23.3542 12.7716 23.7554 12.7713ZM14.841 12.7713C15.1402 12.7713 15.4326 12.8601 15.6814 13.0263C15.9301 13.1925 16.124 13.4288 16.2385 13.7052C16.3529 13.9817 16.3829 14.2858 16.3245 14.5793C16.2661 14.8727 16.122 15.1422 15.9104 15.3538C15.6989 15.5653 15.4293 15.7094 15.1359 15.7677C14.8424 15.8261 14.5383 15.7961 14.2619 15.6816C13.9855 15.5671 13.7492 15.3732 13.583 15.1245C13.4168 14.8757 13.3281 14.5832 13.3281 14.284C13.3285 13.883 13.4881 13.4984 13.7717 13.2148C14.0553 12.9312 14.4399 12.7717 14.841 12.7713ZM51.3281 63.9641C51.3239 64.8793 50.9605 65.7563 50.3161 66.4063C49.6718 67.0562 48.798 67.4272 47.8829 67.4395H9.38678C7.49961 67.4395 5.98829 65.851 5.98829 63.9641V12.4934C5.98722 12.0482 6.07462 11.6073 6.2454 11.1961C6.41619 10.785 6.66696 10.4119 6.98315 10.0985C7.29934 9.78514 7.67465 9.5377 8.08727 9.37057C8.4999 9.20345 8.94162 9.11997 9.38678 9.125H13.9727V11.1764C12.6895 11.5522 11.6109 12.8027 11.6109 14.2846C11.6109 14.7079 11.6942 15.127 11.8562 15.518C12.0182 15.909 12.2556 16.2643 12.5548 16.5636C12.8541 16.8629 13.2094 17.1003 13.6005 17.2623C13.9915 17.4242 14.4106 17.5076 14.8338 17.5076C15.2571 17.5076 15.6762 17.4242 16.0672 17.2623C16.4582 17.1003 16.8135 16.8629 17.1128 16.5636C17.4121 16.2643 17.6495 15.909 17.8115 15.518C17.9734 15.127 18.0568 14.7079 18.0568 14.2846C18.067 13.5755 17.8385 12.8835 17.4081 12.3198C16.9777 11.7561 16.3704 11.3534 15.6836 11.1764V9.125H22.9551V11.1764C22.266 11.3524 21.6556 11.7541 21.2215 12.3175C20.7873 12.8808 20.5544 13.5734 20.5598 14.2846C20.5598 15.1405 20.8998 15.9613 21.505 16.5665C22.1102 17.1717 22.931 17.5117 23.7869 17.5117C24.6428 17.5117 25.4636 17.1717 26.0688 16.5665C26.674 15.9613 27.014 15.1405 27.014 14.2846C27.0018 13.5847 26.768 12.9068 26.3461 12.3482C25.9241 11.7897 25.3359 11.3794 24.666 11.1764V9.125H31.7949V11.1764C30.5117 11.5522 29.4365 12.8027 29.4365 14.2846C29.4365 15.1392 29.776 15.9588 30.3803 16.5631C30.9846 17.1674 31.8042 17.5069 32.6588 17.5069C33.5134 17.5069 34.333 17.1674 34.9373 16.5631C35.5416 15.9588 35.8811 15.1392 35.8811 14.2846C35.8907 13.5753 35.6618 12.8833 35.2311 12.3197C34.8004 11.756 34.1928 11.3534 33.5059 11.1764V9.125H40.7774V11.1764C40.0885 11.3524 39.4785 11.7542 39.0448 12.3177C38.6111 12.8811 38.3788 13.5736 38.385 14.2846C38.385 15.1404 38.725 15.9611 39.3301 16.5662C39.9352 17.1713 40.7559 17.5113 41.6117 17.5113C42.4675 17.5113 43.2882 17.1713 43.8933 16.5662C44.4985 15.9611 44.8384 15.1404 44.8384 14.2846C44.8384 12.8032 43.7715 11.5528 42.4883 11.1764V9.125H47.8829C49.7696 9.125 51.3281 10.6067 51.3281 12.4934V45.7171L48.1149 47.8273C48.0162 47.8921 47.9319 47.9767 47.8676 48.0757C47.8032 48.1748 47.76 48.286 47.7407 48.4026C47.7214 48.5191 47.7265 48.6383 47.7556 48.7528C47.7846 48.8673 47.8371 48.9745 47.9097 49.0677C48.0418 49.2372 48.2329 49.3508 48.4449 49.3858C48.6569 49.4209 48.8744 49.3749 49.054 49.2569L61.7746 40.9034L62.8092 42.4783L41.2576 56.632L40.2226 55.057L44.2718 52.3983C44.4615 52.2738 44.5939 52.079 44.6399 51.8568C44.686 51.6347 44.6419 51.4033 44.5173 51.2136C44.3928 51.024 44.198 50.8916 43.9758 50.8455C43.7537 50.7995 43.5223 50.8436 43.3326 50.9681L38.5721 54.0941C38.5634 54.1 38.5554 54.1073 38.5466 54.1134C38.5249 54.1288 38.5038 54.1442 38.483 54.1616C38.4761 54.1673 38.4702 54.1738 38.4637 54.1798H25.4074C25.1805 54.1798 24.963 54.27 24.8025 54.4304C24.6421 54.5908 24.552 54.8084 24.552 55.0353C24.552 55.2622 24.6421 55.4798 24.8025 55.6402C24.963 55.8006 25.1805 55.8908 25.4074 55.8908H37.4995L36.8937 57.0354C36.8673 57.033 36.8408 57.0314 36.8137 57.0314H25.4074C25.1805 57.0314 24.963 57.1215 24.8025 57.282C24.6421 57.4424 24.552 57.66 24.552 57.8869C24.552 58.1137 24.6421 58.3313 24.8025 58.4918C24.963 58.6522 25.1805 58.7423 25.4074 58.7423H35.9903L35.0012 60.6108C34.9322 60.7411 34.8981 60.8871 34.9022 61.0345C34.9062 61.1819 34.9483 61.3258 35.0243 61.4521C35.1004 61.5785 35.2078 61.683 35.3361 61.7556C35.4645 61.8282 35.6094 61.8664 35.7569 61.8665H35.7794L43.0091 61.677C43.0267 61.677 43.0439 61.6736 43.0613 61.6722C43.0787 61.6707 43.0985 61.6697 43.1171 61.6669C43.1397 61.6635 43.1617 61.6576 43.1836 61.6526C43.1999 61.6488 43.2163 61.6461 43.2325 61.6412C43.2699 61.63 43.3064 61.6163 43.3419 61.6C43.3506 61.5962 43.3587 61.5908 43.3673 61.5858C43.395 61.5723 43.4219 61.5574 43.448 61.541C43.4508 61.5391 43.4538 61.5381 43.4564 61.5363L51.3281 56.367V63.9641ZM41.4277 60.0066L37.1978 60.1174L39.1172 56.4905L41.4277 60.0066ZM43.232 59.6369L43.1662 59.5371L42.1967 58.0622L63.7484 43.9092L64.7832 45.484L43.232 59.6369ZM66.1889 44.5065L63.2296 40.0026C63.5942 39.8492 63.9875 39.776 64.3829 39.7879C64.7783 39.7998 65.1665 39.8966 65.5212 40.0716C65.7267 40.1705 65.9174 40.2976 66.0877 40.4493C66.376 40.6997 66.6089 41.0074 66.7717 41.3528C66.9344 41.6983 67.0234 42.0738 67.0329 42.4556C67.0424 42.8373 66.9723 43.2168 66.827 43.5699C66.6817 43.923 66.4644 44.242 66.1889 44.5065Z" fill="#333333"/>
<defs>
<linearGradient id="paint0_linear" x1="37.1938" y1="55.6063" x2="41.5021" y2="60.7223" gradientUnits="userSpaceOnUse">
<stop stop-color="#519ABA"/>
<stop offset="1" stop-color="#6DBDDF"/>
</linearGradient>
</defs>
</svg>
