<svg width="62" height="62" viewBox="0 0 62 62" fill="none" xmlns="http://www.w3.org/2000/svg">
<g clip-path="url(#clip0)">
<path d="M54.2326 26.0845L48.7512 31.5659L51.879 43.9728L62 33.8518L54.2326 26.0845Z" fill="#DEDEDE"/>
<path d="M28.341 0.192871L18.3198 10.2142L30.6182 13.4507L36.1085 7.96022L28.341 0.192871Z" fill="#DEDEDE"/>
<path d="M3.79488 35.9586L0 39.7533L13.8371 48.6796L21.6035 34.8457L3.79488 35.9586Z" fill="#F5F5F5" fill-opacity="0.97"/>
<path d="M13.1772 47.867L22.0077 61.7612L25.8024 57.9666L26.9154 40.1577L13.1772 47.867Z" fill="#F5F5F5" fill-opacity="0.97"/>
<path d="M48.6389 18.5566L34.6804 33.6316L52.1687 61.8072L58.8891 55.0866L48.6389 18.5566Z" fill="#F5F5F5" fill-opacity="0.97"/>
<path d="M7.09062 3.31934L0.377441 10.0323L28.5615 27.512L43.6379 13.5525L7.09062 3.31934Z" fill="#F5F5F5" fill-opacity="0.97"/>
<path d="M60.0557 1.7162L13.02 48.7519L11.3442 47.0773L12.9614 42.9482C15.1755 37.9172 17.5201 34.3154 20.5666 31.2702L43.4101 8.42669C46.3772 5.45957 50.2524 2.93917 54.9258 0.935057L55.3481 0.754419C56.9409 0.072141 58.7619 0.422434 59.9886 1.64785L60.0557 1.7162Z" fill="#F5F5F5" fill-opacity="0.97"/>
<path d="M61.3128 6.71903C59.554 10.8249 57.4254 15.1248 53.7931 18.7559L30.9228 41.6263C27.3356 45.2134 23.1297 47.3408 19.119 49.1057L19.0494 49.135L14.9912 50.7229L13.02 48.7517L60.0557 1.71606L60.4194 2.07978C61.6448 3.3052 61.9963 5.12623 61.3128 6.71903Z" fill="#DEDEDE"/>
</g>
<defs>
<clipPath id="clip0">
<rect width="62" height="62" fill="white"/>
</clipPath>
</defs>
</svg>
