<svg width="64" height="44" viewBox="0 0 64 44" fill="none" xmlns="http://www.w3.org/2000/svg">
<path d="M63.9999 2.10098V36.9534C63.9999 37.6655 63.423 38.2411 62.7122 38.2411H15.5763C14.8654 38.2411 14.2886 37.6655 14.2886 36.9534V2.10098C14.2886 1.38886 14.8654 0.813232 15.5763 0.813232H42.7641V18.7204C42.7641 19.0114 43.0009 19.2484 43.2921 19.2484H55.7431C56.0341 19.2484 56.2711 19.0114 56.2711 18.7204V0.813232H62.7123C63.423 0.813232 63.9999 1.38886 63.9999 2.10098V2.10098Z" fill="#F4B248"/>
<path d="M29.0098 38.2408H15.5763C14.8654 38.2408 14.2886 37.6652 14.2886 36.9531V27.4702H25.7931C27.256 27.4702 28.4432 28.6562 28.4432 30.1203C28.4432 31.5845 27.256 32.7705 25.7931 32.7705H17.3932L29.0098 38.2408Z" fill="#FCCD8A"/>
<path d="M63.9998 2.10098V36.9534C63.9998 37.6655 63.4229 38.2411 62.712 38.2411H60.2229C60.9338 38.2411 61.5107 37.6655 61.5107 36.9534V2.10098C61.5107 1.38886 60.9338 0.813232 60.2229 0.813232H62.712C63.4229 0.813232 63.9998 1.38886 63.9998 2.10098Z" fill="#FCCD8A"/>
<path d="M28.4431 27.8669C28.4431 29.3307 27.2565 30.5173 25.7927 30.5173H17.3939L31.3221 37.0763L39.5422 36.0483C41.3251 35.8253 43.0547 36.7513 43.8576 38.3587C44.2355 39.1151 43.7975 40.0247 42.9706 40.2009L28.9602 43.1874L7.39087 36.8524V25.2166H25.7927C27.2565 25.2166 28.4431 26.4032 28.4431 27.8669Z" fill="white"/>
<path d="M43.995 38.936C43.995 39.5206 43.5933 40.0679 42.97 40.2005L28.9595 43.1868L7.39014 36.8525V34.8591L28.3634 41.0183L41.985 38.1145C42.4949 38.0064 42.8529 37.6098 42.9508 37.1474C43.3165 37.4874 43.6255 37.8943 43.8574 38.3591C43.9513 38.5471 43.995 38.7429 43.995 38.936Z" fill="white"/>
<path d="M6.0765 40.6315H1.29288C0.578875 40.6315 0 40.0526 0 39.3386V25.7367C0 25.0227 0.578875 24.4438 1.29288 24.4438H7.36938C8.08337 24.4438 8.66225 25.0227 8.66225 25.7367V38.0457C8.66225 39.4738 7.5045 40.6315 6.0765 40.6315Z" fill="#70D9E6"/>
<path d="M8.66266 25.737V38.0463C8.66266 39.4745 7.50503 40.6321 6.07691 40.6321H3.75903C5.18716 40.6321 6.34478 39.4745 6.34478 38.0463V25.737C6.34478 25.0222 5.76528 24.4441 5.05191 24.4441H7.36978C8.08316 24.4441 8.66266 25.0222 8.66266 25.737V25.737Z" fill="#6ECEDC"/>
<path d="M3.57683 37.8644H3.44695C2.91358 37.8644 2.4812 37.432 2.4812 36.8986C2.4812 36.3652 2.91358 35.9329 3.44695 35.9329H3.57683C4.1102 35.9329 4.54258 36.3652 4.54258 36.8986C4.54258 37.432 4.1102 37.8644 3.57683 37.8644Z" fill="#6ECEDC"/>
<path d="M21.4946 32.4487H17.3933C16.77 32.4487 16.2021 32.817 15.9471 33.3862C15.7875 33.7455 15.4346 33.958 15.065 33.958C14.9336 33.958 14.7998 33.931 14.671 33.8742C14.1843 33.6566 13.9666 33.0848 14.1843 32.5981C14.7495 31.3336 16.009 30.5171 17.3933 30.5171L21.4946 32.4487Z" fill="white"/>
<path d="M57.1105 20.648H41.9249C41.5693 20.648 41.281 20.3597 41.281 20.0041V0.812744H57.7544V20.0042C57.7544 20.3597 57.4661 20.648 57.1105 20.648Z" fill="#F8F3F1"/>
<path d="M57.7544 0.813232V20.0042C57.7544 20.3596 57.4659 20.6481 57.1105 20.6481H41.9244C41.569 20.6481 41.2805 20.3596 41.2805 20.0042V0.813232H57.7544Z" fill="#F8F3F1"/>
<path d="M57.7546 0.813232V20.0042C57.7546 20.3596 57.4661 20.6481 57.1107 20.6481H54.7876C55.143 20.6481 55.4315 20.3596 55.4315 20.0042V0.813232H57.7546Z" fill="#EFE2DD"/>
<path d="M41.2805 12.2134H57.7544V14.145H41.2805V12.2134Z" fill="#EFE2DD"/>
<path d="M53.505 10.2174H45.1342C44.6007 10.2174 44.1685 9.78501 44.1685 9.25164C44.1685 8.71826 44.6008 8.28589 45.1342 8.28589H53.505C54.0385 8.28589 54.4707 8.71826 54.4707 9.25164C54.4707 9.78501 54.0385 10.2174 53.505 10.2174Z" fill="#EFE2DD"/>
<path d="M47.1951 6.86949H45.1342C44.6007 6.86949 44.1685 6.43711 44.1685 5.90374C44.1685 5.37036 44.6008 4.93799 45.1342 4.93799H47.1951C47.7286 4.93799 48.1608 5.37036 48.1608 5.90374C48.161 6.43699 47.7286 6.86949 47.1951 6.86949Z" fill="#EFE2DD"/>
<path d="M45.2635 17.815H45.1342C44.6007 17.815 44.1685 17.3827 44.1685 16.8493C44.1685 16.3159 44.6008 15.8835 45.1342 15.8835H45.2635C45.797 15.8835 46.2292 16.3159 46.2292 16.8493C46.2292 17.3827 45.7968 17.815 45.2635 17.815Z" fill="#EFE2DD"/>
<path d="M48.2896 17.815H48.1603C47.6268 17.815 47.1946 17.3827 47.1946 16.8493C47.1946 16.3159 47.627 15.8835 48.1603 15.8835H48.2896C48.8231 15.8835 49.2553 16.3159 49.2553 16.8493C49.2553 17.3827 48.8231 17.815 48.2896 17.815Z" fill="#EFE2DD"/>
<path d="M51.3157 17.815H51.1865C50.653 17.815 50.2207 17.3827 50.2207 16.8493C50.2207 16.3159 50.6531 15.8835 51.1865 15.8835H51.3157C51.8492 15.8835 52.2815 16.3159 52.2815 16.8493C52.2815 17.3827 51.8492 17.815 51.3157 17.815Z" fill="#EFE2DD"/>
<path d="M54.3418 17.815H54.2126C53.6791 17.815 53.2468 17.3827 53.2468 16.8493C53.2468 16.3159 53.6792 15.8835 54.2126 15.8835H54.3418C54.8753 15.8835 55.3076 16.3159 55.3076 16.8493C55.3076 17.3827 54.8753 17.815 54.3418 17.815Z" fill="#EFE2DD"/>
<path d="M23.3172 5.22023C22.9454 4.8706 22.3657 4.8706 21.994 5.22023L19.8025 7.28073C19.4139 7.6461 19.3951 8.25723 19.7605 8.64598C19.9505 8.8481 20.2071 8.95023 20.4642 8.95023C20.7014 8.95023 20.9391 8.86335 21.1256 8.68798L21.6897 8.1576V10.6466C21.6897 11.18 22.1221 11.6124 22.6555 11.6124C23.1889 11.6124 23.6212 11.18 23.6212 10.6466V8.1576L24.1852 8.68798C24.574 9.05348 25.1851 9.0346 25.5505 8.64598C25.9159 8.25735 25.8971 7.64623 25.5085 7.28073L23.3172 5.22023Z" fill="#FCCD8A"/>
<path d="M33.3936 7.27975L31.2021 5.21925C30.8303 4.86963 30.2508 4.86963 29.8789 5.21925L27.6875 7.27975C27.2989 7.64512 27.2801 8.25637 27.6455 8.645C28.0109 9.03362 28.622 9.05237 29.0108 8.687L29.5748 8.15662V10.6456C29.5748 11.179 30.0071 11.6114 30.5405 11.6114C31.0739 11.6114 31.5063 11.179 31.5063 10.6456V8.15662L32.0704 8.687C32.2569 8.86237 32.4945 8.94925 32.7319 8.94925C32.9889 8.94925 33.2456 8.84712 33.4356 8.645C33.801 8.25637 33.7823 7.64512 33.3936 7.27975Z" fill="#FCCD8A"/>
<path d="M22.104 16.0356L20.2054 19.1928C19.9473 19.6219 20.2564 20.1685 20.7572 20.1685H24.5544C25.0552 20.1685 25.3643 19.622 25.1062 19.1928L23.2075 16.0356C22.9574 15.6196 22.3543 15.6196 22.104 16.0356Z" fill="#FB9927"/>
<path d="M57.7547 28.8251H53.204C52.6705 28.8251 52.2383 28.3927 52.2383 27.8593C52.2383 27.3259 52.6707 26.8936 53.204 26.8936H57.7547C58.2882 26.8936 58.7204 27.3259 58.7204 27.8593C58.7205 28.3925 58.2882 28.8251 57.7547 28.8251Z" fill="#FCCD8A"/>
<path d="M57.7544 32.2198H41.2812C40.7477 32.2198 40.3154 31.7875 40.3154 31.2541C40.3154 30.7207 40.7478 30.2883 41.2812 30.2883H57.7546C58.2881 30.2883 58.7203 30.7207 58.7203 31.2541C58.7203 31.7875 58.2879 32.2198 57.7544 32.2198Z" fill="#FCCD8A"/>
</svg>
