<svg width="66" height="66" viewBox="0 0 66 66" fill="none" xmlns="http://www.w3.org/2000/svg">
<g clip-path="url(#clip0)">
<path opacity="0.1" d="M48.1532 18.92C48.153 18.92 48.1529 18.92 48.1528 18.92V8.80933C48.1528 8.09776 47.5766 7.52026 46.8637 7.52026H19.136C18.4231 7.52026 17.8469 8.09776 17.8469 8.80933V61.3734C17.8469 61.8543 18.3548 62.1662 18.7841 61.9471L20.5849 61.028C20.7692 60.9339 20.9871 60.9339 21.1714 61.028L23.6155 62.2758C23.7998 62.3699 24.0177 62.3699 24.202 62.2758L26.6474 61.028C26.8304 60.9339 27.0495 60.9339 27.2326 61.028L29.6779 62.2758C29.8623 62.3699 30.0801 62.3699 30.2632 62.2758L32.7085 61.028C32.8929 60.9339 33.1107 60.9339 33.295 61.028L35.7391 62.2758C35.9234 62.3699 36.1413 62.3699 36.3256 62.2758L38.7697 61.028C38.954 60.9339 39.1719 60.9339 39.3549 61.028L41.8003 62.2758C41.9833 62.3699 42.2012 62.3699 42.3855 62.2758L44.8296 61.028C45.0139 60.9339 45.2318 60.9339 45.4161 61.028L47.2156 61.9471C47.6449 62.1662 48.1528 61.8543 48.1528 61.3721V32.6534H48.1532C51.9456 32.6534 55.0199 29.579 55.0199 25.7867C55.0199 21.9942 51.9456 18.92 48.1532 18.92Z" fill="#2626BC"/>
<path d="M60.7762 17.1851C52.3435 10.702 44.1644 15.9855 35.0414 14.1175C25.8523 12.2359 22.1913 5.9705 11.7253 8.86251C2.45412 11.4244 -3.17135 21.6954 1.92534 30.2943C3.37773 32.7447 5.85196 34.5934 6.8631 37.3351C8.49415 41.758 6.01141 45.1536 6.49571 49.5002C8.5082 67.5602 36.0892 60.5647 46.2379 54.9459C62.154 46.1338 72.9212 26.5224 60.7762 17.1851Z" fill="url(#paint0_linear)"/>
<path d="M48.1526 5.58667V58.1495C48.1526 58.6316 47.6447 58.9435 47.2154 58.7244L45.4159 57.8053C45.2315 57.7112 45.0137 57.7112 44.8294 57.8053L42.3853 59.0531C42.201 59.1472 41.9831 59.1472 41.8001 59.0531L39.3547 57.8053C39.1717 57.7112 38.9538 57.7112 38.7695 57.8053L36.3254 59.0531C36.1411 59.1472 35.9232 59.1472 35.7389 59.0531L33.2948 57.8053C33.1105 57.7112 32.8926 57.7112 32.7083 57.8053L30.2629 59.0531C30.0799 59.1472 29.862 59.1472 29.6777 59.0531L27.2323 57.8053C27.0493 57.7112 26.8302 57.7112 26.6471 57.8053L24.2018 59.0531C24.0174 59.1472 23.7996 59.1472 23.6152 59.0531L21.1712 57.8053C20.9868 57.7112 20.769 57.7112 20.5847 57.8053L18.7838 58.7244C18.3546 58.9435 17.8467 58.6316 17.8467 58.1508V5.58667C17.8467 4.87511 18.4229 4.29761 19.1357 4.29761H46.8635C47.5763 4.29761 48.1526 4.87511 48.1526 5.58667Z" fill="white"/>
<path d="M48.1525 18.6396V32.3733C44.3601 32.3733 41.2856 29.2989 41.2856 25.5065C41.2856 21.7141 44.3601 18.6396 48.1525 18.6396Z" fill="#DCFDEE"/>
<path d="M36.0319 59.7677C35.8305 59.7677 35.6294 59.721 35.446 59.6274L33.0013 58.3796L30.5566 59.6274C30.1895 59.8145 29.7513 59.8144 29.3847 59.6274L26.9399 58.3796L24.495 59.6274C24.128 59.8145 23.69 59.8145 23.3231 59.6274L20.8778 58.3796L19.077 59.2985C18.6741 59.5041 18.2035 59.4858 17.8178 59.2497C17.4321 59.0135 17.2019 58.6026 17.2019 58.1504V5.58716C17.2019 4.52097 18.0693 3.65356 19.1355 3.65356H25.4484C25.8043 3.65356 26.093 3.94219 26.093 4.2981C26.093 4.65401 25.8043 4.94263 25.4484 4.94263H19.1355C18.7801 4.94263 18.491 5.23176 18.491 5.58716V58.1502L20.2917 57.2313C20.6587 57.0441 21.0968 57.0441 21.4635 57.2313L23.9089 58.4791L26.3537 57.2313C26.7206 57.044 27.1588 57.0438 27.5259 57.2313L29.9705 58.4789L32.4152 57.2311C32.782 57.0438 33.2202 57.0437 33.5873 57.2311L36.0319 58.4788L38.4761 57.2311C38.8433 57.0438 39.2814 57.0438 39.6482 57.2311L42.0925 58.4789L44.5364 57.2313C44.9035 57.044 45.3415 57.044 45.7084 57.2311L47.5083 58.1498V33.2457C47.5083 32.8898 47.7969 32.6011 48.1528 32.6011C48.5087 32.6011 48.7973 32.8898 48.7973 33.2457V58.1501C48.7973 58.6023 48.5671 59.0133 48.1814 59.2494C47.7959 59.4856 47.325 59.5039 46.9223 59.2981L45.1225 58.3794L42.6786 59.6271C42.3117 59.8145 41.8734 59.8147 41.5063 59.6271L39.0622 58.3794L36.618 59.6271C36.4345 59.721 36.2331 59.7677 36.0319 59.7677Z" fill="#2626BC"/>
<path d="M33.6439 28.0891H22.491C22.1349 28.0891 21.8464 27.8005 21.8464 27.4446C21.8464 27.0887 22.1349 26.8 22.491 26.8H33.6439C34 26.8 34.2885 27.0887 34.2885 27.4446C34.2885 27.8005 34 28.0891 33.6439 28.0891Z" fill="#8399FE"/>
<path d="M23.976 25.5061H22.491C22.1349 25.5061 21.8464 25.2175 21.8464 24.8616C21.8464 24.5057 22.1349 24.217 22.491 24.217H23.976C24.332 24.217 24.6205 24.5057 24.6205 24.8616C24.6205 25.2175 24.332 25.5061 23.976 25.5061Z" fill="#01ECA5"/>
<path d="M36.222 33.9424H22.491C22.1349 33.9424 21.8464 33.6538 21.8464 33.2979C21.8464 32.9419 22.1349 32.6533 22.491 32.6533H36.222C36.5781 32.6533 36.8666 32.9419 36.8666 33.2979C36.8666 33.6538 36.5781 33.9424 36.222 33.9424Z" fill="#8399FE"/>
<path d="M23.976 31.3601H22.491C22.1349 31.3601 21.8464 31.0715 21.8464 30.7156C21.8464 30.3597 22.1349 30.071 22.491 30.071H23.976C24.332 30.071 24.6205 30.3597 24.6205 30.7156C24.6205 31.0715 24.332 31.3601 23.976 31.3601Z" fill="#01ECA5"/>
<path d="M34.933 39.7957H22.491C22.1349 39.7957 21.8464 39.507 21.8464 39.1511C21.8464 38.7952 22.1349 38.5066 22.491 38.5066H34.933C35.289 38.5066 35.5775 38.7952 35.5775 39.1511C35.5775 39.507 35.289 39.7957 34.933 39.7957Z" fill="#8399FE"/>
<path d="M23.976 37.2134H22.491C22.1349 37.2134 21.8464 36.9248 21.8464 36.5688C21.8464 36.2129 22.1349 35.9243 22.491 35.9243H23.976C24.332 35.9243 24.6205 36.2129 24.6205 36.5688C24.6205 36.9248 24.332 37.2134 23.976 37.2134Z" fill="#01ECA5"/>
<path d="M29.7767 45.6492H22.491C22.1349 45.6492 21.8464 45.3605 21.8464 45.0046C21.8464 44.6487 22.1349 44.3601 22.491 44.3601H29.7767C30.1328 44.3601 30.4213 44.6487 30.4213 45.0046C30.4213 45.3605 30.1328 45.6492 29.7767 45.6492Z" fill="#8399FE"/>
<path d="M35.6757 45.6492H32.9016C32.5456 45.6492 32.2571 45.3605 32.2571 45.0046C32.2571 44.6487 32.5456 44.3601 32.9016 44.3601H35.6757C36.0317 44.3601 36.3202 44.6487 36.3202 45.0046C36.3202 45.3605 36.0316 45.6492 35.6757 45.6492Z" fill="#8399FE"/>
<path d="M23.976 43.0669H22.491C22.1349 43.0669 21.8464 42.7783 21.8464 42.4224C21.8464 42.0665 22.1349 41.7778 22.491 41.7778H23.976C24.332 41.7778 24.6205 42.0665 24.6205 42.4224C24.6205 42.7783 24.332 43.0669 23.976 43.0669Z" fill="#01ECA5"/>
<path d="M43.1334 28.0894H41.0039C40.6479 28.0894 40.3594 27.8007 40.3594 27.4448C40.3594 27.0889 40.6479 26.8003 41.0039 26.8003H43.1334C43.4895 26.8003 43.778 27.0889 43.778 27.4448C43.778 27.8007 43.4894 28.0894 43.1334 28.0894Z" fill="#8399FE"/>
<path d="M43.7784 27.4441C43.7784 27.8012 43.4896 28.0886 43.1338 28.0886H41.7868C41.6205 27.6774 41.4916 27.2456 41.4065 26.7996H43.1338C43.4896 26.7996 43.7784 27.0883 43.7784 27.4441Z" fill="#6583FE"/>
<path d="M43.1334 33.9424H41.0039C40.6479 33.9424 40.3594 33.6538 40.3594 33.2979C40.3594 32.9419 40.6479 32.6533 41.0039 32.6533H43.1334C43.4895 32.6533 43.778 32.9419 43.778 33.2979C43.778 33.6538 43.4894 33.9424 43.1334 33.9424Z" fill="#8399FE"/>
<path d="M43.1334 39.7957H41.0039C40.6479 39.7957 40.3594 39.507 40.3594 39.1511C40.3594 38.7952 40.6479 38.5066 41.0039 38.5066H43.1334C43.4895 38.5066 43.778 38.7952 43.778 39.1511C43.778 39.507 43.4894 39.7957 43.1334 39.7957Z" fill="#8399FE"/>
<path d="M43.1334 45.6492H41.0039C40.6479 45.6492 40.3594 45.3605 40.3594 45.0046C40.3594 44.6487 40.6479 44.3601 41.0039 44.3601H43.1334C43.4895 44.3601 43.778 44.6487 43.778 45.0046C43.778 45.3605 43.4894 45.6492 43.1334 45.6492Z" fill="#8399FE"/>
<path d="M42.9202 43.0741C42.5643 43.0741 42.2756 42.7855 42.2756 42.4296V42.4148C42.2756 42.0589 42.5643 41.7703 42.9202 41.7703C43.2761 41.7703 43.5647 42.0589 43.5647 42.4148V42.4296C43.5647 42.7857 43.2762 43.0741 42.9202 43.0741Z" fill="#01ECA5"/>
<path d="M43.1335 53.1094H40.0217C39.6657 53.1094 39.3772 52.8208 39.3772 52.4648C39.3772 52.1089 39.6657 51.8203 40.0217 51.8203H43.1335C43.4896 51.8203 43.7781 52.1089 43.7781 52.4648C43.7781 52.8208 43.4894 53.1094 43.1335 53.1094Z" fill="#8399FE"/>
<path d="M26.8921 53.1094H22.4912C22.1352 53.1094 21.8467 52.8208 21.8467 52.4648C21.8467 52.1089 22.1352 51.8203 22.4912 51.8203H26.8921C27.2481 51.8203 27.5366 52.1089 27.5366 52.4648C27.5366 52.8208 27.248 53.1094 26.8921 53.1094Z" fill="#8399FE"/>
<path d="M42.9202 37.2211C42.5643 37.2211 42.2756 36.9325 42.2756 36.5766V36.5618C42.2756 36.2059 42.5643 35.9172 42.9202 35.9172C43.2761 35.9172 43.5647 36.2059 43.5647 36.5618V36.5766C43.5647 36.9325 43.2762 37.2211 42.9202 37.2211Z" fill="#01ECA5"/>
<path d="M42.9202 31.3678C42.5643 31.3678 42.2756 31.0792 42.2756 30.7233V30.7085C42.2756 30.3526 42.5643 30.064 42.9202 30.064C43.2761 30.064 43.5647 30.3526 43.5647 30.7085V30.7233C43.5647 31.0792 43.2762 31.3678 42.9202 31.3678Z" fill="#01ECA5"/>
<path d="M42.9202 25.5143C42.5643 25.5143 42.2756 25.2257 42.2756 24.8698V24.855C42.2756 24.4991 42.5643 24.2104 42.9202 24.2104C43.2761 24.2104 43.5647 24.4991 43.5647 24.855V24.8698C43.5647 25.2257 43.2762 25.5143 42.9202 25.5143Z" fill="#01ECA5"/>
<path d="M48.1528 29.4309C51.9452 29.4309 55.0195 26.3566 55.0195 22.5642C55.0195 18.7718 51.9452 15.6975 48.1528 15.6975C44.3605 15.6975 41.2861 18.7718 41.2861 22.5642C41.2861 26.3566 44.3605 29.4309 48.1528 29.4309Z" fill="#01ECA5"/>
<path d="M48.7973 15.0824V5.58716C48.7973 4.52097 47.9299 3.65356 46.8637 3.65356H29.219C28.8631 3.65356 28.5745 3.94219 28.5745 4.2981C28.5745 4.65401 28.8631 4.94263 29.219 4.94263H46.8637C47.2191 4.94263 47.5082 5.23176 47.5082 5.58716V15.0824C43.6673 15.4107 40.6415 18.6397 40.6415 22.5642C40.6415 26.706 44.0111 30.0755 48.1529 30.0755C52.2946 30.0755 55.6641 26.706 55.6641 22.5642C55.664 18.6397 52.6382 15.4105 48.7973 15.0824ZM48.1527 28.7863C44.7218 28.7863 41.9304 25.9951 41.9304 22.5641C41.9304 19.1331 44.7218 16.3418 48.1527 16.3418C51.5837 16.3418 54.3749 19.1331 54.3749 22.5641C54.3749 25.9951 51.5837 28.7863 48.1527 28.7863Z" fill="#2626BC"/>
<path d="M48.9928 21.9195H48.7974V20.6073H50.016C50.3719 20.6073 50.6606 20.3187 50.6606 19.9627C50.6606 19.6068 50.3719 19.3182 50.016 19.3182H48.7974V18.9941C48.7974 18.6382 48.5087 18.3496 48.1528 18.3496C47.7969 18.3496 47.5083 18.6382 47.5083 18.9941V19.3182H47.3129C46.2402 19.3182 45.3677 20.1908 45.3677 21.2634C45.3677 22.336 46.2402 23.2086 47.3129 23.2086H47.5083V24.5209H46.2897C45.9338 24.5209 45.6452 24.8095 45.6452 25.1654C45.6452 25.5213 45.9338 25.8099 46.2897 25.8099H47.5083V26.134C47.5083 26.4899 47.7969 26.7785 48.1528 26.7785C48.5087 26.7785 48.7974 26.4899 48.7974 26.134V25.8099H48.9928C50.0653 25.8099 50.9378 24.9374 50.9378 23.8647C50.9378 22.7921 50.0653 21.9195 48.9928 21.9195ZM47.3129 21.9195C46.951 21.9195 46.6567 21.6252 46.6567 21.2634C46.6567 20.9016 46.951 20.6073 47.3129 20.6073H47.5083V21.9195H47.3129ZM48.9928 24.5209H48.7974V23.2086H48.9928C49.3545 23.2086 49.6488 23.5029 49.6488 23.8647C49.6488 24.2266 49.3545 24.5209 48.9928 24.5209Z" fill="white"/>
<path d="M35.6757 20.46H30.3235C29.9674 20.46 29.679 20.1713 29.679 19.8154C29.679 19.4595 29.9674 19.1709 30.3235 19.1709H35.6757C36.0317 19.1709 36.3202 19.4595 36.3202 19.8154C36.3202 20.1713 36.0316 20.46 35.6757 20.46Z" fill="#8399FE"/>
<path d="M39.2206 15.6975H26.7786C26.4225 15.6975 26.134 15.4089 26.134 15.053C26.134 14.6971 26.4225 14.4084 26.7786 14.4084H39.2206C39.5766 14.4084 39.8651 14.6971 39.8651 15.053C39.8651 15.4089 39.5765 15.6975 39.2206 15.6975Z" fill="#4369FD"/>
<path d="M42.4432 12.8684H23.5559C23.1999 12.8684 22.9114 12.5798 22.9114 12.2239C22.9114 11.868 23.1999 11.5793 23.5559 11.5793H42.4432C42.7993 11.5793 43.0878 11.868 43.0878 12.2239C43.0878 12.5798 42.7991 12.8684 42.4432 12.8684Z" fill="#4369FD"/>
<path d="M23.976 10.0395H22.491C22.1349 10.0395 21.8464 9.75093 21.8464 9.39502C21.8464 9.03911 22.1349 8.75049 22.491 8.75049H23.976C24.332 8.75049 24.6205 9.03911 24.6205 9.39502C24.6205 9.75093 24.332 10.0395 23.976 10.0395Z" fill="#01ECA5"/>
<path d="M53.0035 10.6189C52.5248 10.6189 52.0462 10.4366 51.6818 10.0723C50.9531 9.3436 50.9531 8.15779 51.6818 7.42895C52.4105 6.70012 53.5964 6.70012 54.3252 7.42895C55.0539 8.15779 55.0539 9.3436 54.3252 10.0723C53.9609 10.4366 53.4822 10.6189 53.0035 10.6189ZM53.0036 8.17081C52.855 8.17081 52.7065 8.22727 52.5934 8.34045C52.3673 8.56655 52.3673 8.93458 52.5934 9.16081C52.8194 9.38691 53.1875 9.38704 53.4138 9.16081C53.6399 8.93471 53.6399 8.56668 53.4138 8.34045C53.3006 8.22727 53.1521 8.17081 53.0036 8.17081Z" fill="#00ECA2"/>
<path d="M56.2449 16.9211C55.7662 16.9211 55.2876 16.7389 54.9232 16.3745C54.5701 16.0214 54.3757 15.5521 54.3757 15.0528C54.3757 14.5536 54.5701 14.0842 54.9233 13.7312C55.6519 13.0024 56.8377 13.0023 57.5666 13.7312C57.9196 14.0842 58.114 14.5536 58.114 15.0528C58.114 15.5522 57.9196 16.0216 57.5664 16.3745C57.2023 16.7388 56.7235 16.9211 56.2449 16.9211ZM56.2449 14.473C56.0964 14.473 55.9477 14.5295 55.8347 14.6426C55.725 14.7522 55.6648 14.8979 55.6648 15.0528C55.6648 15.2078 55.7251 15.3534 55.8347 15.463C56.0609 15.6892 56.429 15.6892 56.6551 15.463C56.7648 15.3534 56.825 15.2078 56.825 15.0528C56.825 14.8979 56.7646 14.7522 56.6551 14.6426C56.542 14.5295 56.3935 14.473 56.2449 14.473Z" fill="#FF7EB8"/>
<path d="M13.584 30.5196C13.1054 30.5196 12.6266 30.3373 12.2624 29.973C11.5336 29.2442 11.5336 28.0584 12.2624 27.3297C12.9911 26.6011 14.177 26.601 14.9057 27.3297C15.6344 28.0585 15.6344 29.2443 14.9057 29.973C14.5414 30.3373 14.0627 30.5196 13.584 30.5196ZM13.584 28.0715C13.4355 28.0715 13.2869 28.128 13.1738 28.2412C12.9476 28.4673 12.9476 28.8353 13.1738 29.0615C13.3999 29.2878 13.7681 29.2876 13.9942 29.0615C14.2204 28.8354 14.2204 28.4674 13.9942 28.2412C13.8812 28.128 13.7327 28.0715 13.584 28.0715Z" fill="#FF7EB8"/>
<path d="M12.7529 36.3131C12.5879 36.3131 12.423 36.2502 12.2971 36.1244L11.5283 35.3556L10.7595 36.1244C10.5077 36.376 10.0997 36.376 9.84799 36.1244C9.59624 35.8726 9.59624 35.4645 9.84799 35.2129L11.0726 33.9883C11.3244 33.7367 11.7323 33.7367 11.9841 33.9883L13.2087 35.2129C13.4605 35.4646 13.4605 35.8728 13.2087 36.1244C13.0828 36.2502 12.9179 36.3131 12.7529 36.3131Z" fill="#6583FE"/>
<path d="M55.02 54.9786C54.855 54.9786 54.6901 54.9157 54.5642 54.7899L53.7954 54.0211L53.0266 54.7899C52.7748 55.0415 52.3668 55.0415 52.1151 54.7899C51.8633 54.5382 51.8633 54.13 52.1151 53.8784L53.3397 52.6538C53.5914 52.4022 53.9994 52.4022 54.2512 52.6538L55.4758 53.8784C55.7276 54.1302 55.7276 54.5383 55.4758 54.7899C55.3499 54.9156 55.185 54.9786 55.02 54.9786Z" fill="#00ECA2"/>
</g>
<defs>
<linearGradient id="paint0_linear" x1="-1.16183" y1="19.7221" x2="60.0729" y2="49.15" gradientUnits="userSpaceOnUse">
<stop stop-color="#566FF9"/>
<stop offset="0.5834" stop-color="#E6D5F4"/>
<stop offset="0.997" stop-color="#9DAAF2"/>
</linearGradient>
<clipPath id="clip0">
<rect width="66" height="66" fill="white"/>
</clipPath>
</defs>
</svg>
