<svg width="93" height="35" viewBox="0 0 93 35" fill="none" xmlns="http://www.w3.org/2000/svg">
<path d="M0 9C0 6.23858 2.23858 4 5 4H29.0612V30.3367H5C2.23858 30.3367 0 28.0982 0 25.3367V9Z" fill="#333333"/>
<g filter="url(#filter0_d)">
<rect x="29.0613" y="4" width="59.9388" height="26.3367" fill="white"/>
</g>
<path d="M40.9621 15.5268C42.5675 15.5268 43.3701 16.4648 43.3701 18.3408V21.7848C43.3701 22.0461 43.2908 22.2514 43.1321 22.4008C42.9828 22.5501 42.7728 22.6248 42.5021 22.6248C42.2315 22.6248 42.0168 22.5501 41.8581 22.4008C41.6995 22.2514 41.6201 22.0461 41.6201 21.7848V18.3408C41.6201 17.8461 41.5175 17.4868 41.3121 17.2628C41.1161 17.0294 40.8035 16.9128 40.3741 16.9128C39.8701 16.9128 39.4641 17.0714 39.1561 17.3888C38.8575 17.7061 38.7081 18.1308 38.7081 18.6628V21.7848C38.7081 22.0461 38.6288 22.2514 38.4701 22.4008C38.3115 22.5501 38.0968 22.6248 37.8261 22.6248C37.5555 22.6248 37.3408 22.5501 37.1821 22.4008C37.0328 22.2514 36.9581 22.0461 36.9581 21.7848V13.4128C36.9581 13.1701 37.0375 12.9741 37.1961 12.8248C37.3641 12.6754 37.5788 12.6008 37.8401 12.6008C38.1015 12.6008 38.3115 12.6708 38.4701 12.8108C38.6288 12.9508 38.7081 13.1421 38.7081 13.3848V16.6468C38.9415 16.2828 39.2495 16.0074 39.6321 15.8208C40.0241 15.6248 40.4675 15.5268 40.9621 15.5268ZM48.7036 21.3228C49.1702 21.3508 49.4036 21.5608 49.4036 21.9528C49.4036 22.1768 49.3102 22.3494 49.1236 22.4708C48.9462 22.5828 48.6896 22.6294 48.3536 22.6108L47.9756 22.5828C46.4076 22.4708 45.6236 21.6308 45.6236 20.0628V17.0108H44.9236C44.6716 17.0108 44.4756 16.9548 44.3356 16.8428C44.2049 16.7308 44.1396 16.5674 44.1396 16.3528C44.1396 16.1381 44.2049 15.9748 44.3356 15.8628C44.4756 15.7508 44.6716 15.6948 44.9236 15.6948H45.6236V14.4068C45.6236 14.1548 45.7029 13.9541 45.8616 13.8048C46.0202 13.6554 46.2349 13.5808 46.5056 13.5808C46.7669 13.5808 46.9769 13.6554 47.1356 13.8048C47.2942 13.9541 47.3736 14.1548 47.3736 14.4068V15.6948H48.5636C48.8156 15.6948 49.0069 15.7508 49.1376 15.8628C49.2776 15.9748 49.3476 16.1381 49.3476 16.3528C49.3476 16.5674 49.2776 16.7308 49.1376 16.8428C49.0069 16.9548 48.8156 17.0108 48.5636 17.0108H47.3736V20.1888C47.3736 20.8794 47.6909 21.2481 48.3256 21.2948L48.7036 21.3228ZM53.7758 21.3228C54.2425 21.3508 54.4758 21.5608 54.4758 21.9528C54.4758 22.1768 54.3825 22.3494 54.1958 22.4708C54.0185 22.5828 53.7618 22.6294 53.4258 22.6108L53.0478 22.5828C51.4798 22.4708 50.6958 21.6308 50.6958 20.0628V17.0108H49.9958C49.7438 17.0108 49.5478 16.9548 49.4078 16.8428C49.2772 16.7308 49.2118 16.5674 49.2118 16.3528C49.2118 16.1381 49.2772 15.9748 49.4078 15.8628C49.5478 15.7508 49.7438 15.6948 49.9958 15.6948H50.6958V14.4068C50.6958 14.1548 50.7752 13.9541 50.9338 13.8048C51.0925 13.6554 51.3072 13.5808 51.5778 13.5808C51.8392 13.5808 52.0492 13.6554 52.2078 13.8048C52.3665 13.9541 52.4458 14.1548 52.4458 14.4068V15.6948H53.6358C53.8878 15.6948 54.0792 15.7508 54.2098 15.8628C54.3498 15.9748 54.4198 16.1381 54.4198 16.3528C54.4198 16.5674 54.3498 16.7308 54.2098 16.8428C54.0792 16.9548 53.8878 17.0108 53.6358 17.0108H52.4458V20.1888C52.4458 20.8794 52.7632 21.2481 53.3978 21.2948L53.7758 21.3228ZM59.3218 15.5268C59.9098 15.5268 60.4325 15.6761 60.8898 15.9748C61.3565 16.2734 61.7158 16.6981 61.9678 17.2488C62.2291 17.7901 62.3598 18.4154 62.3598 19.1248C62.3598 19.8341 62.2291 20.4548 61.9678 20.9868C61.7158 21.5188 61.3611 21.9294 60.9038 22.2188C60.4465 22.5081 59.9191 22.6528 59.3218 22.6528C58.8365 22.6528 58.4025 22.5501 58.0198 22.3448C57.6371 22.1394 57.3431 21.8548 57.1378 21.4908V24.3468C57.1378 24.5894 57.0585 24.7808 56.8998 24.9208C56.7411 25.0608 56.5311 25.1308 56.2698 25.1308C56.0085 25.1308 55.7938 25.0561 55.6258 24.9068C55.4671 24.7574 55.3878 24.5614 55.3878 24.3188V16.3808C55.3878 16.1288 55.4625 15.9281 55.6118 15.7788C55.7705 15.6294 55.9805 15.5548 56.2418 15.5548C56.5031 15.5548 56.7131 15.6294 56.8718 15.7788C57.0305 15.9281 57.1098 16.1288 57.1098 16.3808V16.7308C57.3151 16.3481 57.6091 16.0541 57.9918 15.8488C58.3838 15.6341 58.8271 15.5268 59.3218 15.5268ZM58.8598 21.2948C59.4105 21.2948 59.8398 21.1081 60.1478 20.7348C60.4558 20.3521 60.6098 19.8154 60.6098 19.1248C60.6098 18.4154 60.4558 17.8648 60.1478 17.4728C59.8398 17.0808 59.4105 16.8848 58.8598 16.8848C58.2998 16.8848 57.8658 17.0761 57.5578 17.4588C57.2591 17.8414 57.1098 18.3874 57.1098 19.0968C57.1098 19.7968 57.2591 20.3381 57.5578 20.7208C57.8658 21.1034 58.2998 21.2948 58.8598 21.2948ZM66.274 22.6528C65.2567 22.6528 64.4353 22.4521 63.81 22.0508C63.5113 21.8734 63.362 21.6214 63.362 21.2948C63.362 21.1081 63.4133 20.9588 63.516 20.8468C63.6187 20.7254 63.7447 20.6648 63.894 20.6648C64.0527 20.6648 64.272 20.7394 64.552 20.8888C64.8507 21.0288 65.1213 21.1361 65.364 21.2108C65.616 21.2854 65.9333 21.3228 66.316 21.3228C66.708 21.3228 67.0113 21.2574 67.226 21.1268C67.45 20.9961 67.562 20.8141 67.562 20.5808C67.562 20.4221 67.5153 20.2961 67.422 20.2028C67.338 20.1094 67.1793 20.0254 66.946 19.9508C66.722 19.8668 66.3767 19.7734 65.91 19.6708C65.0793 19.5028 64.482 19.2648 64.118 18.9568C63.7633 18.6488 63.586 18.2241 63.586 17.6828C63.586 17.2721 63.7073 16.9034 63.95 16.5768C64.1927 16.2408 64.524 15.9841 64.944 15.8068C65.3733 15.6201 65.8587 15.5268 66.4 15.5268C66.792 15.5268 67.17 15.5781 67.534 15.6808C67.898 15.7741 68.2247 15.9141 68.514 16.1008C68.8127 16.2874 68.962 16.5348 68.962 16.8428C68.962 17.0294 68.9107 17.1881 68.808 17.3188C68.7053 17.4401 68.5793 17.5008 68.43 17.5008C68.3273 17.5008 68.2247 17.4821 68.122 17.4448C68.0287 17.3981 67.9073 17.3328 67.758 17.2488C67.4873 17.1088 67.254 17.0061 67.058 16.9408C66.862 16.8661 66.6193 16.8288 66.33 16.8288C65.9847 16.8288 65.7093 16.8988 65.504 17.0388C65.308 17.1788 65.21 17.3701 65.21 17.6128C65.21 17.8461 65.3127 18.0234 65.518 18.1448C65.7233 18.2661 66.12 18.3874 66.708 18.5088C67.3333 18.6394 67.8233 18.7888 68.178 18.9568C68.5327 19.1248 68.7847 19.3348 68.934 19.5868C69.0927 19.8388 69.172 20.1608 69.172 20.5528C69.172 21.1874 68.906 21.6961 68.374 22.0788C67.8513 22.4614 67.1513 22.6528 66.274 22.6528ZM71.4169 17.6408C71.1183 17.6408 70.8709 17.5428 70.6749 17.3468C70.4789 17.1414 70.3809 16.8894 70.3809 16.5908C70.3809 16.2921 70.4789 16.0448 70.6749 15.8488C70.8709 15.6528 71.1183 15.5548 71.4169 15.5548C71.7156 15.5548 71.9629 15.6528 72.1589 15.8488C72.3549 16.0448 72.4529 16.2921 72.4529 16.5908C72.4529 16.8894 72.3549 17.1414 72.1589 17.3468C71.9629 17.5428 71.7156 17.6408 71.4169 17.6408ZM71.4169 22.6248C71.1183 22.6248 70.8709 22.5268 70.6749 22.3308C70.4789 22.1254 70.3809 21.8734 70.3809 21.5748C70.3809 21.2761 70.4789 21.0288 70.6749 20.8328C70.8709 20.6274 71.1183 20.5248 71.4169 20.5248C71.7156 20.5248 71.9629 20.6274 72.1589 20.8328C72.3549 21.0288 72.4529 21.2761 72.4529 21.5748C72.4529 21.8734 72.3549 22.1254 72.1589 22.3308C71.9629 22.5268 71.7156 22.6248 71.4169 22.6248ZM75.1239 23.0168C75.0679 23.1941 74.9792 23.3248 74.8579 23.4088C74.7365 23.4928 74.6012 23.5348 74.4519 23.5348C74.2652 23.5348 74.0972 23.4694 73.9479 23.3388C73.8079 23.2174 73.7379 23.0588 73.7379 22.8628C73.7379 22.7788 73.7519 22.6948 73.7799 22.6108L77.0279 12.4328C77.0839 12.2554 77.1725 12.1248 77.2939 12.0408C77.4152 11.9568 77.5505 11.9148 77.6999 11.9148C77.8865 11.9148 78.0499 11.9801 78.1899 12.1108C78.3392 12.2321 78.4139 12.3908 78.4139 12.5868C78.4139 12.6708 78.3999 12.7548 78.3719 12.8388L75.1239 23.0168ZM78.8563 23.0168C78.8003 23.1941 78.7116 23.3248 78.5903 23.4088C78.469 23.4928 78.3336 23.5348 78.1843 23.5348C77.9976 23.5348 77.8296 23.4694 77.6803 23.3388C77.5403 23.2174 77.4703 23.0588 77.4703 22.8628C77.4703 22.7788 77.4843 22.6948 77.5123 22.6108L80.7603 12.4328C80.8163 12.2554 80.905 12.1248 81.0263 12.0408C81.1476 11.9568 81.283 11.9148 81.4323 11.9148C81.619 11.9148 81.7823 11.9801 81.9223 12.1108C82.0716 12.2321 82.1463 12.3908 82.1463 12.5868C82.1463 12.6708 82.1323 12.7548 82.1043 12.8388L78.8563 23.0168Z" fill="#333333"/>
<defs>
<filter id="filter0_d" x="25.0613" y="0" width="67.9388" height="34.3367" filterUnits="userSpaceOnUse" color-interpolation-filters="sRGB">
<feFlood flood-opacity="0" result="BackgroundImageFix"/>
<feColorMatrix in="SourceAlpha" type="matrix" values="0 0 0 0 0 0 0 0 0 0 0 0 0 0 0 0 0 0 127 0"/>
<feOffset/>
<feGaussianBlur stdDeviation="2"/>
<feColorMatrix type="matrix" values="0 0 0 0 0 0 0 0 0 0 0 0 0 0 0 0 0 0 0.15 0"/>
<feBlend mode="normal" in2="BackgroundImageFix" result="effect1_dropShadow"/>
<feBlend mode="normal" in="SourceGraphic" in2="effect1_dropShadow" result="shape"/>
</filter>
</defs>
</svg>
