<svg width="243" height="238" viewBox="0 0 243 238" fill="none" xmlns="http://www.w3.org/2000/svg">
<path d="M47.7798 198.41C47.7798 198.41 58.6198 172.82 61.4498 162.82C64.2798 152.82 63.4498 123.14 63.4498 123.14L71.2898 102.64C71.2898 102.64 126.29 57.96 142.29 48.3C158.29 38.64 177.63 23.62 183.29 26.96C188.95 30.3 187.96 37.63 181.29 44.96C178.55 47.96 174.84 51.12 172.57 54.41C170.72 57.1 168.41 65.55 170.63 68.55C173.29 72.14 180.17 66.93 183.87 70.46C185.82 72.32 185.7 75.59 184.4 77.94C183.1 80.29 180.89 81.94 178.86 83.75C173.45 88.43 168.86 94.31 164.56 99.94C160.16 105.73 162.68 113.94 163.03 120.61C163.45 128.72 164.58 138.39 162.29 146.32C158.62 158.98 137.11 174.65 127.78 182.66C118.45 190.67 110.61 217.33 110.61 217.33L47.7798 198.41Z" fill="white"/>
<path d="M110.63 217.83H110.48L47.6398 198.91C47.5717 198.89 47.5087 198.856 47.4551 198.809C47.4016 198.762 47.3589 198.705 47.3298 198.64C47.3026 198.575 47.2886 198.505 47.2886 198.435C47.2886 198.365 47.3026 198.295 47.3298 198.23C47.4398 197.98 58.1898 172.56 60.9798 162.7C63.7698 152.84 62.9798 123.47 62.9798 123.18C62.9694 123.117 62.9694 123.053 62.9798 122.99L70.8198 102.48C70.851 102.398 70.9026 102.326 70.9698 102.27C71.5198 101.82 126.19 57.46 142.04 47.89C146.04 45.46 150.33 42.67 154.46 39.97C167.66 31.34 179.05 23.9 183.56 26.55C184.575 27.1045 185.449 27.8839 186.117 28.8286C186.784 29.7732 187.226 30.858 187.41 32C187.99 35.86 185.96 40.57 181.68 45.28C180.68 46.28 179.68 47.37 178.57 48.47C176.537 50.3713 174.673 52.4457 173 54.67C171.15 57.36 169 65.51 171.05 68.23C172.19 69.77 174.31 69.42 176.75 69.02C179.19 68.62 182.2 68.13 184.24 70.08C186.28 72.03 186.24 75.72 184.85 78.16C183.563 80.2026 181.912 81.9921 179.98 83.44L179.2 84.11C173.85 88.74 169.2 94.61 164.98 100.22C161.71 104.51 162.4 110.22 163.07 115.73C163.27 117.42 163.46 119.01 163.55 120.57C163.61 121.82 163.69 123.11 163.78 124.43C164.23 131.56 164.78 139.65 162.78 146.43C159.68 157.19 144 170 133.56 178.53C131.56 180.17 129.65 181.73 128.12 183.04C119.01 190.85 111.19 217.21 111.12 217.47C111.081 217.597 110.995 217.704 110.88 217.77C110.803 217.81 110.717 217.831 110.63 217.83V217.83ZM48.4598 198.09L110.29 216.71C111.43 212.95 118.71 189.78 127.47 182.28C129.01 180.96 130.92 179.4 132.93 177.75C143.23 169.34 158.8 156.62 161.82 146.18C163.74 139.56 163.23 131.57 162.82 124.51C162.74 123.19 162.65 121.9 162.59 120.64C162.51 119.12 162.32 117.54 162.12 115.87C161.46 110.42 160.71 104.25 164.22 99.64C168.52 93.98 173.16 88.07 178.59 83.38L179.37 82.7C181.207 81.325 182.782 79.6315 184.02 77.7C185.18 75.59 185.41 72.56 183.59 70.82C181.77 69.08 179.39 69.63 176.96 70.03C174.53 70.43 171.79 70.87 170.29 68.84C167.83 65.53 170.37 56.84 172.22 54.13C173.92 51.8453 175.825 49.7199 177.91 47.78C179 46.69 180.04 45.66 180.98 44.62C184.98 40.21 186.98 35.62 186.46 32.17C186.31 31.1668 185.929 30.2124 185.345 29.3826C184.762 28.5527 183.993 27.8705 183.1 27.39C179.1 25.05 166.88 33.05 155.04 40.79C150.91 43.49 146.63 46.29 142.6 48.72C127.14 58.06 74.4498 100.72 71.7498 102.94L63.9998 123.23C64.0598 125.44 64.7498 153.23 61.9998 162.96C59.3398 172.09 49.9998 194.42 48.4598 198.09V198.09Z" fill="#231F20"/>
<path d="M170.91 0.449951H100.9C98.0779 0.449951 95.79 2.73778 95.79 5.55995V155.26C95.79 158.082 98.0779 160.37 100.9 160.37H170.91C173.732 160.37 176.02 158.082 176.02 155.26V5.55995C176.02 2.73778 173.732 0.449951 170.91 0.449951Z" fill="white"/>
<path d="M170.91 160.88H100.91C99.4195 160.88 97.9901 160.288 96.9361 159.234C95.8822 158.18 95.29 156.751 95.29 155.26V5.57C95.3032 4.08816 95.9011 2.67151 96.9537 1.62834C98.0062 0.585177 99.4282 -5.86449e-05 100.91 4.40773e-09H170.91C172.399 0.00264909 173.826 0.595922 174.878 1.64959C175.929 2.70326 176.52 4.13121 176.52 5.62V155.26C176.52 156.749 175.929 158.177 174.878 159.23C173.826 160.284 172.399 160.877 170.91 160.88V160.88ZM100.91 1C99.6847 1 98.5096 1.48675 97.6432 2.35317C96.7768 3.21959 96.29 4.3947 96.29 5.62V155.26C96.29 156.485 96.7768 157.66 97.6432 158.527C98.5096 159.393 99.6847 159.88 100.91 159.88H170.91C172.134 159.877 173.306 159.389 174.17 158.523C175.035 157.657 175.52 156.484 175.52 155.26V5.57C175.507 4.35511 175.016 3.1943 174.153 2.33895C173.29 1.4836 172.125 1.00256 170.91 1H100.91Z" fill="#231F20"/>
<path d="M171.97 14.92H100.17V138H171.97V14.92Z" fill="url(#paint0_linear)"/>
<path d="M143.57 156H129.91C128.945 156 128.019 155.616 127.336 154.934C126.654 154.251 126.27 153.325 126.27 152.36V147.14C126.27 146.174 126.653 145.247 127.336 144.563C128.018 143.878 128.944 143.493 129.91 143.49H143.57C144.536 143.493 145.462 143.878 146.144 144.563C146.827 145.247 147.21 146.174 147.21 147.14V152.36C147.21 153.325 146.827 154.251 146.144 154.934C145.461 155.616 144.535 156 143.57 156V156ZM129.91 144.49C129.209 144.493 128.537 144.773 128.043 145.27C127.548 145.766 127.27 146.439 127.27 147.14V152.36C127.27 153.06 127.548 153.732 128.043 154.227C128.538 154.722 129.21 155 129.91 155H143.57C144.27 155 144.942 154.722 145.437 154.227C145.932 153.732 146.21 153.06 146.21 152.36V147.14C146.21 146.439 145.932 145.766 145.437 145.27C144.943 144.773 144.271 144.493 143.57 144.49H129.91Z" fill="#D1D3D4"/>
<path d="M141.89 8.12H121.45C121.317 8.12 121.19 8.06732 121.096 7.97355C121.002 7.87978 120.95 7.7526 120.95 7.62C120.95 7.48739 121.002 7.36021 121.096 7.26644C121.19 7.17267 121.317 7.12 121.45 7.12H141.89C142.022 7.12 142.15 7.17267 142.243 7.26644C142.337 7.36021 142.39 7.48739 142.39 7.62C142.39 7.7526 142.337 7.87978 142.243 7.97355C142.15 8.06732 142.022 8.12 141.89 8.12Z" fill="#D1D3D4"/>
<path d="M147.5 7.88H144.76C144.627 7.88 144.5 7.82733 144.406 7.73356C144.312 7.63979 144.26 7.51261 144.26 7.38C144.26 7.2474 144.312 7.12022 144.406 7.02645C144.5 6.93268 144.627 6.88 144.76 6.88H147.5C147.632 6.88 147.76 6.93268 147.853 7.02645C147.947 7.12022 148 7.2474 148 7.38C148 7.51261 147.947 7.63979 147.853 7.73356C147.76 7.82733 147.632 7.88 147.5 7.88Z" fill="#D1D3D4"/>
<path d="M168.33 70.47C168.029 71.8529 168.068 73.288 168.443 74.6526C168.818 76.0172 169.518 77.2706 170.483 78.3056C171.449 79.3405 172.65 80.1263 173.985 80.5955C175.32 81.0647 176.749 81.2035 178.15 81C179.754 80.7494 181.273 80.1071 182.57 79.13C183.764 78.2622 184.756 77.146 185.478 75.8582C186.199 74.5704 186.633 73.1415 186.75 71.67C187.03 66.86 182.97 62.67 178.25 62.09C173.83 61.54 169.2 66.44 168.33 70.47Z" fill="white"/>
<path d="M176.94 81.58C175.555 81.5853 174.186 81.2801 172.935 80.687C171.683 80.0939 170.581 79.2278 169.708 78.1525C168.835 77.0772 168.214 75.82 167.891 74.4732C167.567 73.1264 167.55 71.7243 167.84 70.37C168.84 65.92 173.68 61.01 178.31 61.58C183.52 62.22 187.54 66.76 187.25 71.69C187.131 73.2346 186.678 74.7348 185.921 76.0867C185.165 77.4387 184.124 78.6102 182.87 79.52C181.507 80.557 179.91 81.2437 178.22 81.52C177.795 81.5702 177.368 81.5902 176.94 81.58V81.58ZM177.57 62.58C173.73 62.58 169.64 66.81 168.82 70.58C168.541 71.8831 168.58 73.2343 168.936 74.5188C169.291 75.8032 169.951 76.9827 170.861 77.9569C171.77 78.9311 172.902 79.6711 174.159 80.1139C175.416 80.5567 176.761 80.6892 178.08 80.5C179.605 80.2601 181.047 79.6488 182.28 78.72C183.421 77.8991 184.37 76.8397 185.061 75.6154C185.751 74.3911 186.167 73.0312 186.28 71.63C186.53 67.29 182.84 63.14 178.22 62.57C178 62.55 177.78 62.54 177.57 62.54V62.58Z" fill="#231F20"/>
<path d="M165.21 101.65C164.638 102.464 164.258 103.397 164.099 104.379C163.939 105.361 164.005 106.367 164.29 107.32C164.752 108.439 165.468 109.435 166.38 110.23C168.79 112.51 172.08 114.12 175.38 113.63C177.383 113.217 179.267 112.355 180.89 111.11C183.79 109.11 186.57 106.59 187.53 103.22C188.92 98.33 185.38 91.22 179.65 91.9C174.91 92.49 167.72 97.76 165.21 101.65Z" fill="white"/>
<path d="M174.16 114.22C171.078 114.099 168.159 112.803 166 110.6C165.026 109.752 164.266 108.687 163.78 107.49C163.472 106.463 163.401 105.378 163.575 104.32C163.748 103.261 164.16 102.256 164.78 101.38V101.38C167.35 97.38 174.67 92.02 179.54 91.38C180.71 91.2447 181.895 91.4096 182.983 91.8593C184.071 92.309 185.027 93.0285 185.76 93.95C186.835 95.2306 187.595 96.7453 187.978 98.3725C188.362 99.9997 188.359 101.694 187.97 103.32C187.13 106.32 184.97 108.87 181.14 111.49C179.451 112.778 177.492 113.667 175.41 114.09C174.997 114.163 174.579 114.207 174.16 114.22V114.22ZM165.63 101.92C165.098 102.669 164.744 103.529 164.593 104.435C164.442 105.341 164.499 106.269 164.76 107.15C165.203 108.201 165.889 109.133 166.76 109.87C169.39 112.36 172.5 113.55 175.31 113.13C177.235 112.723 179.045 111.893 180.61 110.7C184.23 108.21 186.28 105.79 187.05 103.08C187.398 101.613 187.398 100.085 187.051 98.6182C186.704 97.1512 186.018 95.7855 185.05 94.63C184.421 93.8398 183.603 93.2211 182.671 92.8312C181.739 92.4414 180.724 92.2931 179.72 92.4C175.17 92.97 168.08 98.2 165.67 101.92H165.63Z" fill="#231F20"/>
<path d="M168.12 122.06C167.006 122.828 166.074 123.832 165.39 125C164.719 126.358 164.447 127.879 164.606 129.386C164.766 130.892 165.35 132.322 166.29 133.51C167.252 134.677 168.438 135.639 169.777 136.342C171.117 137.044 172.583 137.472 174.09 137.6C175.865 137.815 177.665 137.653 179.373 137.124C181.081 136.595 182.658 135.711 184 134.53C185.324 133.325 186.311 131.796 186.865 130.093C187.419 128.391 187.521 126.574 187.16 124.82C185 115.64 173.84 117.9 168.12 122.06Z" fill="white"/>
<path d="M175.54 138.18C175.04 138.18 174.54 138.18 174.03 138.1C172.455 137.967 170.923 137.518 169.524 136.781C168.126 136.044 166.89 135.034 165.89 133.81C164.898 132.542 164.284 131.02 164.119 129.419C163.955 127.818 164.246 126.203 164.96 124.76C165.676 123.528 166.656 122.469 167.83 121.66V121.66C171.69 118.85 177.97 116.88 182.49 118.56C183.804 119.056 184.968 119.883 185.87 120.96C186.772 122.038 187.382 123.329 187.64 124.71C188.031 126.549 187.931 128.458 187.352 130.246C186.773 132.035 185.734 133.639 184.34 134.9C181.915 137.047 178.778 138.216 175.54 138.18V138.18ZM168.42 122.47C167.366 123.194 166.482 124.14 165.83 125.24C165.202 126.518 164.948 127.947 165.099 129.363C165.249 130.779 165.797 132.123 166.68 133.24C167.6 134.355 168.734 135.275 170.015 135.944C171.297 136.614 172.699 137.021 174.14 137.14C175.846 137.347 177.576 137.192 179.218 136.686C180.86 136.179 182.377 135.332 183.67 134.2C184.934 133.061 185.877 131.609 186.403 129.991C186.93 128.373 187.022 126.645 186.67 124.98C186.454 123.758 185.923 122.613 185.131 121.657C184.338 120.702 183.311 119.969 182.15 119.53C177.95 117.98 172.06 119.86 168.42 122.53V122.47Z" fill="#231F20"/>
<path d="M50.9497 174.4L58.1197 160.24L125.96 187.41L118.3 199.74L50.9497 174.4Z" fill="#5CB2CD"/>
<path d="M123.8 195.66L50.2798 167.65L25.2798 206.91L105.79 237.42L123.8 195.66Z" fill="#231F20"/>
<path d="M105.79 237.92C105.733 237.928 105.676 237.928 105.62 237.92L25.0998 207.42C25.0313 207.393 24.9697 207.352 24.9195 207.298C24.8693 207.244 24.8318 207.18 24.8098 207.11C24.7778 207.043 24.7612 206.969 24.7612 206.895C24.7612 206.821 24.7778 206.747 24.8098 206.68L49.8098 167.43C49.8715 167.333 49.9648 167.259 50.0742 167.223C50.1835 167.187 50.3021 167.189 50.4098 167.23L123.92 195.23C124.047 195.281 124.15 195.377 124.21 195.5C124.237 195.563 124.251 195.631 124.251 195.7C124.251 195.769 124.237 195.837 124.21 195.9L106.21 237.65C106.17 237.728 106.11 237.794 106.036 237.841C105.962 237.889 105.877 237.916 105.79 237.92ZM25.9998 206.66L105.5 236.78L123.1 195.94L50.4498 168.26L25.9998 206.66Z" fill="#231F20"/>
<path d="M63.5898 124C63.5898 124 64.0898 81.12 69.0898 72.61C74.0898 64.1 89.8698 28.35 94.0898 28.1C98.3098 27.85 102.71 40.79 98.9998 52.3C96.8245 59.0823 93.6205 65.4903 89.4998 71.3C89.4998 71.3 101.92 84.55 95.1599 108.3" fill="white"/>
<path d="M63.5897 124.52C63.524 124.519 63.4593 124.504 63.3991 124.478C63.3389 124.452 63.2846 124.414 63.2391 124.367C63.1936 124.319 63.1578 124.263 63.1339 124.202C63.11 124.141 63.0984 124.076 63.0997 124.01C63.0997 122.26 63.6597 80.9 68.6697 72.38C70.1897 69.78 72.7297 64.64 75.6697 58.67C84.5697 40.61 91.0997 27.8 94.1097 27.67C95.2097 27.59 96.3397 28.26 97.3597 29.58C100.59 33.76 102.36 43.72 99.4397 52.49C97.2642 59.1879 94.1209 65.5316 90.1097 71.32C91.9097 73.49 101.8 86.73 95.6197 108.48C95.602 108.546 95.5715 108.607 95.53 108.661C95.4885 108.715 95.4368 108.76 95.3778 108.794C95.3188 108.828 95.2538 108.85 95.1863 108.859C95.1189 108.867 95.0504 108.863 94.9847 108.845C94.919 108.827 94.8575 108.797 94.8036 108.755C94.7498 108.714 94.7046 108.662 94.6707 108.603C94.6368 108.544 94.6149 108.479 94.6061 108.412C94.5974 108.344 94.602 108.276 94.6197 108.21C98.0697 96.09 96.3797 86.81 94.3497 81.21C93.1885 77.7518 91.3985 74.5379 89.0697 71.73C88.9949 71.6402 88.9539 71.5269 88.9539 71.41C88.9539 71.2931 88.9949 71.1798 89.0697 71.09C93.1486 65.3178 96.325 58.9583 98.4897 52.23C101.25 43.77 99.6397 34.23 96.5697 30.23C96.3132 29.8063 95.9622 29.4478 95.5441 29.1824C95.126 28.9169 94.6522 28.7518 94.1597 28.7C91.5097 28.86 82.1597 47.85 76.5597 59.2C73.6197 65.2 71.0697 70.34 69.5597 72.97C64.6797 81.26 64.1297 123.68 64.1297 124.1C64.1078 124.224 64.0404 124.336 63.9406 124.414C63.8408 124.492 63.7158 124.529 63.5897 124.52V124.52Z" fill="#231F20"/>
<path d="M50.5298 201.41C53.4293 201.41 55.7798 199.06 55.7798 196.16C55.7798 193.261 53.4293 190.91 50.5298 190.91C47.6303 190.91 45.2798 193.261 45.2798 196.16C45.2798 199.06 47.6303 201.41 50.5298 201.41Z" fill="white"/>
<path d="M48.9999 71.16C48.9037 71.1629 48.809 71.1349 48.7299 71.08L22.4199 53.89C22.3085 53.8171 22.2306 53.7029 22.2035 53.5726C22.1763 53.4422 22.202 53.3064 22.2749 53.195C22.3478 53.0836 22.462 53.0058 22.5924 52.9786C22.7227 52.9514 22.8585 52.9771 22.9699 53.05L49.2899 70.24C49.4018 70.3136 49.4803 70.4283 49.5083 70.5593C49.5364 70.6903 49.5118 70.827 49.4399 70.94C49.3904 71.0102 49.3243 71.067 49.2476 71.1054C49.1708 71.1438 49.0857 71.1625 48.9999 71.16V71.16Z" fill="#D1D3D4"/>
<path d="M37.94 104.07L0.99995 102.36C0.934272 102.357 0.869744 102.342 0.810062 102.314C0.75038 102.287 0.696716 102.248 0.652134 102.2C0.607551 102.151 0.572932 102.095 0.550251 102.033C0.527569 101.971 0.517267 101.906 0.519947 101.84C0.530043 101.709 0.589257 101.587 0.685703 101.498C0.782149 101.409 0.908697 101.36 1.03995 101.36L38 103.07C38.1326 103.08 38.2562 103.141 38.3455 103.239C38.4348 103.338 38.4829 103.467 38.48 103.6C38.4697 103.734 38.4073 103.858 38.3063 103.946C38.2052 104.034 38.0737 104.078 37.94 104.07Z" fill="#D1D3D4"/>
<path d="M216.28 67.3299C216.178 67.3272 216.079 67.2944 215.995 67.2357C215.912 67.177 215.847 67.095 215.81 66.9999C215.765 66.8753 215.771 66.7379 215.828 66.6178C215.884 66.4978 215.985 66.4051 216.11 66.3599L237.82 58.3599C237.945 58.3149 238.082 58.3212 238.202 58.3775C238.322 58.4337 238.415 58.5353 238.46 58.6599C238.484 58.7209 238.495 58.7861 238.494 58.8516C238.492 58.9171 238.477 58.9815 238.45 59.0412C238.423 59.1009 238.384 59.1545 238.336 59.1989C238.288 59.2434 238.232 59.2777 238.17 59.2999L216.45 67.2999C216.396 67.3204 216.338 67.3305 216.28 67.3299V67.3299Z" fill="#D1D3D4"/>
<path d="M242.41 123.37H242.29L218.23 117.51C218.101 117.479 217.99 117.399 217.921 117.286C217.852 117.174 217.83 117.039 217.86 116.91C217.875 116.845 217.903 116.784 217.942 116.731C217.981 116.677 218.03 116.631 218.087 116.597C218.144 116.563 218.207 116.54 218.273 116.53C218.338 116.52 218.405 116.524 218.47 116.54L242.53 122.4C242.658 122.431 242.769 122.511 242.839 122.624C242.908 122.736 242.93 122.871 242.9 123C242.871 123.107 242.807 123.202 242.718 123.269C242.63 123.336 242.521 123.372 242.41 123.37Z" fill="#D1D3D4"/>
<path d="M204.28 193.94C204.208 193.939 204.138 193.924 204.072 193.895C204.007 193.865 203.948 193.823 203.9 193.77L189.83 177.35C189.786 177.301 189.753 177.244 189.732 177.182C189.711 177.12 189.703 177.055 189.707 176.989C189.712 176.924 189.73 176.861 189.759 176.802C189.789 176.744 189.83 176.692 189.88 176.65C189.975 176.558 190.102 176.506 190.235 176.506C190.367 176.506 190.495 176.558 190.59 176.65L204.66 193.07C204.703 193.119 204.737 193.176 204.758 193.238C204.779 193.3 204.787 193.365 204.782 193.43C204.778 193.496 204.76 193.559 204.731 193.618C204.701 193.676 204.66 193.728 204.61 193.77C204.525 193.865 204.407 193.926 204.28 193.94V193.94Z" fill="#D1D3D4"/>
<path d="M28.4699 148C28.3591 148 28.2514 147.964 28.163 147.897C28.0746 147.83 28.0103 147.736 27.9799 147.63C27.9634 147.566 27.9596 147.5 27.9687 147.435C27.9779 147.37 27.9998 147.307 28.0333 147.25C28.0667 147.194 28.111 147.144 28.1636 147.105C28.2163 147.065 28.2762 147.036 28.3399 147.02L41.9199 143.42C41.9836 143.403 42.0499 143.4 42.1151 143.409C42.1803 143.418 42.243 143.44 42.2996 143.473C42.3563 143.507 42.4058 143.551 42.4453 143.604C42.4849 143.656 42.5136 143.716 42.5299 143.78C42.5636 143.907 42.5458 144.043 42.4803 144.157C42.4147 144.271 42.3068 144.355 42.1799 144.39L28.5999 147.99L28.4699 148Z" fill="#D1D3D4"/>
<g filter="url(#filter0_d)">
<circle cx="137" cy="76" r="20" fill="white"/>
</g>
<path d="M133.364 83.5579L127 77.194L129.83 74.364L133.364 77.9079L143.262 68L146.092 70.83L133.364 83.5579Z" fill="#333333"/>
<defs>
<filter id="filter0_d" x="113" y="56" width="48" height="48" filterUnits="userSpaceOnUse" color-interpolation-filters="sRGB">
<feFlood flood-opacity="0" result="BackgroundImageFix"/>
<feColorMatrix in="SourceAlpha" type="matrix" values="0 0 0 0 0 0 0 0 0 0 0 0 0 0 0 0 0 0 127 0"/>
<feOffset dy="4"/>
<feGaussianBlur stdDeviation="2"/>
<feColorMatrix type="matrix" values="0 0 0 0 1 0 0 0 0 1 0 0 0 0 1 0 0 0 0.25 0"/>
<feBlend mode="normal" in2="BackgroundImageFix" result="effect1_dropShadow"/>
<feBlend mode="normal" in="SourceGraphic" in2="effect1_dropShadow" result="shape"/>
</filter>
<linearGradient id="paint0_linear" x1="136.07" y1="14.92" x2="136.07" y2="138" gradientUnits="userSpaceOnUse">
<stop stop-color="#5C9DCD"/>
<stop offset="1" stop-color="#5CB2CD"/>
</linearGradient>
</defs>
</svg>
