<svg id="entkxjhq8un1" xmlns="http://www.w3.org/2000/svg" xmlns:xlink="http://www.w3.org/1999/xlink" viewBox="0 0 512.422000 512.422000" shape-rendering="geometricPrecision" text-rendering="geometricPrecision"><style><![CDATA[#entkxjhq8un14_to {animation: entkxjhq8un14_to__to 3000ms linear 1 normal forwards}@keyframes entkxjhq8un14_to__to { 0% {transform: translate(246.373709px,-88.205535px)} 50% {transform: translate(251.292354px,124.800961px)} 100% {transform: translate(246.373709px,-123.251654px)} }#entkxjhq8un14_ts {animation: entkxjhq8un14_ts__ts 3000ms linear 1 normal forwards}@keyframes entkxjhq8un14_ts__ts { 0% {transform: scale(1,1)} 16.666667% {transform: scale(1,1)} 50% {transform: scale(0.500000,0.500000)} 100% {transform: scale(1,1)} }]]></style><g id="entkxjhq8un2"><path id="entkxjhq8un3" d="M421.211000,300.005000L91.211000,300.005000L91.211000,260.850000L256.211000,240.005000L421.211000,260.850000Z" fill="rgb(92,131,143)" stroke="none" stroke-width="1"/><path id="entkxjhq8un4" d="M421.211000,300.005000L256.211000,300.005000L256.211000,240.005000L421.211000,240.850000Z" fill="rgb(53,106,124)" stroke="none" stroke-width="1"/><path id="entkxjhq8un5" d="M91.211000,338.429000L91.211000,482.423000L256.211000,512.422000L421.211000,482.423000L421.211000,338.429000L256.211000,300.005000Z" fill="rgb(141,180,193)" stroke="none" stroke-width="1"/><path id="entkxjhq8un6" d="M421.211000,351.434000L256.211000,300.005000L256.211000,512.422000L421.211000,482.423000Z" fill="rgb(80,165,193)" stroke="none" stroke-width="1"/><path id="entkxjhq8un7" d="M211.211000,375.005000L46.211000,345.005000L91.211000,270.005000L256.211000,300.005000Z" fill="rgb(240,207,163)" stroke="none" stroke-width="1"/><path id="entkxjhq8un8" d="M211.211000,165.005000L46.211000,195.005000L91.211000,270.005000L256.211000,240.005000Z" fill="rgb(240,207,163)" stroke="none" stroke-width="1"/><g id="entkxjhq8un9"><path id="entkxjhq8un10" d="M301.211000,165.005000L466.211000,195.005000L421.211000,270.005000L256.211000,240.005000Z" transform="matrix(1 0 0 1 -0.31799000000001 -1)" fill="rgb(237,185,134)" stroke="none" stroke-width="1"/><path id="entkxjhq8un11" d="M301.211000,375.005000L466.211000,345.005000L421.211000,270.005000L256.211000,300.005000Z" fill="rgb(237,185,134)" stroke="none" stroke-width="1"/></g><g id="entkxjhq8un12"><g id="entkxjhq8un13" transform="matrix(1 0 0 1 0.00000146000002 83.37063110000000)"><g id="entkxjhq8un14_to" transform="translate(246.373709,-88.205535)"><g id="entkxjhq8un14_ts" transform="scale(1,1)"><g id="entkxjhq8un14" transform="translate(-246.373709,88.205535)"><g id="entkxjhq8un15"><path id="entkxjhq8un16" d="M357.734783,34.649431C340.705249,17.621214,313.097082,17.621214,296.068865,34.649431L292.628209,34.931107L287.868679,30.170261C270.840462,13.142044,243.230978,13.142044,226.202761,30.170261C209.173227,47.198478,209.173227,74.807962,226.202761,91.836180L292.628209,153.312559L356.034199,88.852260C373.063733,71.822726,374.763001,51.677649,357.734783,34.649431Z" transform="matrix(1 0 0 1 -37.22972106500001 -68.31027561000010)" fill="rgb(97,177,204)" stroke="none" stroke-width="1"/><path id="entkxjhq8un17" d="M338.490638,35.394046C321.311525,18.214933,293.457379,18.214933,276.278266,35.394046L271.476560,40.197081L271.476560,159.627572L338.490638,97.606418C355.669751,80.425977,355.669751,52.573160,338.490638,35.394046Z" transform="matrix(1 0 0 1 -15.15385436999992 -72.56970009000011)" fill="rgb(13,127,165)" stroke="none" stroke-width="1"/></g></g></g></g></g></g></g></svg>